<svg width="24" height="24" viewBox="0 0 24 24" fill="none" xmlns="http://www.w3.org/2000/svg">
<path d="M13.0189 12.0122L18.7727 6.28985C19.0486 6.01678 19.0486 5.57473 18.7727 5.30236C18.4976 5.02929 18.0506 5.02929 17.7755 5.30236L12.0266 11.0198L6.22457 5.21714C5.94941 4.94129 5.50248 4.94129 5.22732 5.21714C4.95217 5.4937 4.95217 5.94132 5.22732 6.21717L11.0251 12.0157L5.20637 17.8023C4.93121 18.0754 4.93121 18.5174 5.20637 18.7898C5.48153 19.0628 5.92845 19.0628 6.20361 18.7898L12.0174 13.008L17.7964 18.7877C18.0715 19.0635 18.5185 19.0635 18.7936 18.7877C19.0688 18.5111 19.0688 18.0635 18.7936 17.7877L13.0189 12.0122Z" fill="black"/>
</svg>
