<svg width="32" height="32" viewBox="0 0 32 32" fill="none" xmlns="http://www.w3.org/2000/svg">
<g clip-path="url(#clip0)">
<path d="M16 31.999C24.8366 31.999 32 24.8356 32 15.999C32 7.16247 24.8366 -0.000976562 16 -0.000976562C7.16344 -0.000976562 0 7.16247 0 15.999C0 24.8356 7.16344 31.999 16 31.999Z" fill="#007AB9"/>
<path d="M25.5598 17.2868V23.8832H21.7353V17.7289C21.7353 16.1836 21.1832 15.1283 19.7984 15.1283C18.7417 15.1283 18.114 15.8388 17.8367 16.5267C17.7361 16.7725 17.7101 17.1139 17.7101 17.4588V23.883H13.8854C13.8854 23.883 13.9367 13.4595 13.8854 12.3805H17.7104V14.0105C17.7027 14.0234 17.6918 14.0359 17.685 14.0482H17.7104V14.0105C18.2186 13.2285 19.1251 12.1104 21.1572 12.1104C23.6734 12.1104 25.5598 13.7544 25.5598 17.2868ZM9.88437 6.83594C8.57608 6.83594 7.72015 7.69472 7.72015 8.82303C7.72015 9.92738 8.55127 10.811 9.83417 10.811H9.85898C11.1929 10.811 12.0223 9.92738 12.0223 8.82303C11.997 7.69472 11.1929 6.83594 9.88437 6.83594ZM7.94747 23.8832H11.7708V12.3805H7.94747V23.8832Z" fill="#F1F2F2"/>
</g>
<defs>
<clipPath id="clip0">
<rect width="32" height="32" fill="white"/>
</clipPath>
</defs>
</svg>
