<svg width="48" height="48" viewBox="0 0 48 48" fill="none" xmlns="http://www.w3.org/2000/svg">
<path d="M40.9609 31.0121C38.3484 28.3997 35.2387 26.4656 31.8459 25.2949C35.4797 22.7921 37.8671 18.6036 37.8671 13.8672C37.8671 6.22088 31.6462 0 23.9999 0C16.3535 0 10.1327 6.22088 10.1327 13.8672C10.1327 18.6035 12.52 22.792 16.1538 25.2949C12.761 26.4655 9.65143 28.3995 7.03881 31.0121C2.50825 35.5427 0.0131836 41.5662 0.0131836 47.9733H3.76112C3.76112 37.5799 11.6367 28.9927 21.7333 27.8622L18.1777 42.1772L23.9999 48L29.8215 42.1771L26.2663 27.8621C36.3629 28.9927 44.2384 37.5799 44.2384 47.9733H47.9864C47.9864 41.5661 45.4913 35.5426 40.9609 31.0121ZM23.9997 42.6993L22.3257 41.025L23.9997 34.2851L25.6735 41.025L23.9997 42.6993ZM23.9998 23.9867C18.4199 23.9867 13.8804 19.4471 13.8804 13.8674C13.8804 8.28759 18.4199 3.74803 23.9998 3.74803C29.5797 3.74803 34.1192 8.2875 34.1192 13.8673C34.1192 19.4471 29.5797 23.9867 23.9998 23.9867Z" fill="#0084E9"/>
</svg>
