<svg width="32" height="32" viewBox="0 0 32 32" fill="none" xmlns="http://www.w3.org/2000/svg">
<path d="M17.7144 32C9.98236 32 3.71436 24.8366 3.71436 16C3.71436 7.16343 9.98236 0 17.7144 0C25.4464 0 31.7144 7.16343 31.7144 16C31.7144 24.8366 25.4464 32 17.7144 32Z" fill="#FFD949"/>
<path d="M3.71422 16C3.71422 7.82743 9.07707 1.09029 15.9999 0.123429C15.4376 0.0451429 14.8662 0 14.2856 0C6.55364 0 0.285645 7.16343 0.285645 16C0.285645 24.8366 6.55364 32 14.2856 32C14.8662 32 15.4376 31.9549 15.9999 31.8766C9.07707 30.9097 3.71422 24.1726 3.71422 16Z" fill="#F4BF1A"/>
<path d="M17.7627 28.8709H17.7135C17.3135 28.8709 16.9107 28.8469 16.5164 28.8C16.2027 28.7623 15.9792 28.4783 16.0164 28.1646C16.0541 27.8509 16.3404 27.632 16.6518 27.6652C17.0015 27.7069 17.3587 27.728 17.7135 27.728C18.0295 27.728 18.3095 27.984 18.3095 28.2994C18.3095 28.6149 18.0792 28.8709 17.7627 28.8709ZM21.0855 28.2554C20.8547 28.2554 20.6369 28.1143 20.5507 27.8852C20.4392 27.5897 20.5884 27.26 20.8838 27.1492C21.2129 27.0252 21.5415 26.8794 21.8587 26.7166C22.1398 26.5714 22.4838 26.6829 22.6284 26.964C22.7724 27.2446 22.6615 27.5892 22.3804 27.7332C22.0244 27.916 21.6569 28.0783 21.2867 28.2183C21.2209 28.2434 21.1529 28.2554 21.0855 28.2554ZM13.3512 27.8189C13.2644 27.8189 13.1758 27.7989 13.0929 27.7566C12.7415 27.5777 12.3935 27.3772 12.0592 27.1577C11.7952 26.9852 11.7215 26.6314 11.8941 26.3669C12.0678 26.1034 12.4209 26.0292 12.6855 26.2017C12.9844 26.3977 13.2958 26.5783 13.6101 26.7377C13.8912 26.8806 14.0038 27.2246 13.8609 27.5057C13.7604 27.7046 13.5592 27.8189 13.3512 27.8189ZM24.8427 25.7857C24.6975 25.7857 24.5518 25.7303 24.4404 25.62C24.2164 25.3977 24.2147 25.036 24.4369 24.812C24.6855 24.5617 24.9272 24.292 25.1552 24.0109C25.3547 23.7663 25.7147 23.7292 25.9592 23.928C26.2038 24.1269 26.2415 24.4869 26.0421 24.732C25.7901 25.0417 25.5232 25.3394 25.2484 25.6166C25.1364 25.7291 24.9889 25.7857 24.8427 25.7857ZM9.86094 24.9811C9.6958 24.9811 9.5318 24.9097 9.41866 24.7726C9.17066 24.4697 8.93237 24.1497 8.71123 23.8211C8.53466 23.5594 8.6038 23.204 8.86551 23.0274C9.12666 22.8509 9.48208 22.9194 9.65866 23.1817C9.86037 23.4812 10.0769 23.7726 10.3027 24.0474C10.5027 24.2914 10.4672 24.6514 10.2232 24.852C10.1175 24.9389 9.98837 24.9811 9.86094 24.9811ZM27.3547 22.0457C27.2781 22.0457 27.2009 22.0303 27.1267 21.9983C26.8369 21.872 26.7049 21.5354 26.8307 21.2457C26.9741 20.9177 27.1049 20.5772 27.2198 20.2349C27.3204 19.9366 27.6444 19.7749 27.9438 19.8754C28.2427 19.9766 28.4038 20.3 28.3032 20.5994C28.1775 20.9726 28.0347 21.344 27.8787 21.7023C27.7844 21.9172 27.5741 22.0457 27.3547 22.0457ZM7.68266 21.036C7.44494 21.036 7.22266 20.8857 7.14151 20.6486C7.01523 20.2783 6.90323 19.8972 6.80837 19.5154C6.7318 19.2092 6.91808 18.8994 7.22437 18.8234C7.52951 18.7457 7.84094 18.9332 7.91694 19.2394C8.00437 19.5897 8.10723 19.94 8.22323 20.2794C8.32494 20.5783 8.16551 20.9029 7.86723 21.0046C7.80666 21.0257 7.7438 21.036 7.68266 21.036ZM28.4341 17.6663C28.4192 17.6663 28.4044 17.6657 28.3895 17.6646C28.0747 17.64 27.8398 17.3652 27.8638 17.0503C27.8907 16.704 27.9044 16.3503 27.9044 16C27.9044 15.6846 28.1604 15.4103 28.4758 15.4103C28.7912 15.4103 29.0472 15.6474 29.0472 15.9629V16C29.0472 16.38 29.0324 16.7629 29.0032 17.1389C28.9804 17.4383 28.7295 17.6663 28.4341 17.6663ZM6.9518 16.5777C6.63637 16.5777 6.38037 16.328 6.38037 16.0126V16C6.38037 15.6103 6.3958 15.2183 6.42609 14.836C6.45123 14.5217 6.72494 14.2886 7.04094 14.3114C7.3558 14.3366 7.59066 14.612 7.56551 14.9263C7.53751 15.2794 7.52323 15.6406 7.52323 16C7.52323 16.3154 7.26723 16.5777 6.9518 16.5777ZM28.0581 13.1703C27.8027 13.1703 27.5701 12.9977 27.5049 12.7389C27.4164 12.3874 27.3129 12.0377 27.1964 11.6983C27.0941 11.4 27.2535 11.0749 27.5518 10.9726C27.8507 10.8692 28.1758 11.0292 28.2775 11.328C28.4044 11.6972 28.5169 12.0777 28.6129 12.4589C28.6901 12.7652 28.5044 13.0754 28.1987 13.1526C28.1524 13.1652 28.1055 13.1703 28.0581 13.1703ZM7.67523 12.132C7.61409 12.132 7.55237 12.1217 7.49123 12.1012C7.19237 12 7.03237 11.6754 7.13351 11.3766C7.2598 11.0052 7.40323 10.6343 7.56037 10.2749C7.68723 9.98515 8.02323 9.85429 8.31294 9.98001C8.60209 10.1063 8.73409 10.4434 8.6078 10.7326C8.46323 11.0623 8.3318 11.4029 8.21637 11.7434C8.13466 11.9817 7.91351 12.132 7.67523 12.132ZM26.2295 9.05029C26.0461 9.05029 25.8667 8.96229 25.7558 8.79886C25.5535 8.50058 25.3364 8.20972 25.1101 7.93486C24.9095 7.69144 24.9444 7.33086 25.1878 7.13029C25.4312 6.92972 25.7918 6.96458 25.9924 7.20801C26.2409 7.51029 26.4798 7.82972 26.7021 8.15829C26.8792 8.41944 26.8107 8.77487 26.5495 8.95201C26.4512 9.01829 26.3404 9.05029 26.2295 9.05029ZM9.84437 8.18115C9.71751 8.18115 9.58951 8.13886 9.48323 8.05201C9.23866 7.85258 9.20266 7.49258 9.40266 7.24801C9.65466 6.93944 9.92209 6.64229 10.1975 6.36515C10.4204 6.14229 10.7821 6.14058 11.0055 6.36286C11.2295 6.58572 11.2307 6.94686 11.0084 7.17087C10.7592 7.42172 10.5164 7.69087 10.2872 7.97144C10.1752 8.10972 10.0107 8.18115 9.84437 8.18115ZM23.0341 5.87829C22.9272 5.87829 22.8192 5.84858 22.7232 5.78572C22.4244 5.59086 22.1124 5.41144 21.7964 5.25201C21.5152 5.10972 21.4021 4.76629 21.5444 4.48458C21.6867 4.20401 22.0295 4.08915 22.3118 4.23201C22.6649 4.40972 23.0129 4.61029 23.3467 4.82801C23.6112 5.00058 23.6861 5.35487 23.5135 5.61887C23.4038 5.78744 23.2215 5.87829 23.0341 5.87829ZM13.3307 5.33544C13.1227 5.33544 12.9221 5.22172 12.8209 5.02344C12.6775 4.74229 12.7895 4.39829 13.0707 4.25486C13.4267 4.07372 13.7947 3.91086 14.1655 3.77258C14.4604 3.66172 14.7901 3.81144 14.9009 4.10744C15.0112 4.40286 14.8615 4.73201 14.5655 4.84287C14.2352 4.96629 13.9067 5.11086 13.5889 5.27315C13.5067 5.31544 13.4175 5.33544 13.3307 5.33544ZM18.8198 4.33601C18.7975 4.33601 18.7752 4.33486 18.7529 4.33201C18.4089 4.29201 18.0592 4.27201 17.7135 4.27201C17.3981 4.27201 17.1301 4.01601 17.1301 3.70058C17.1301 3.38515 17.3741 3.12915 17.6895 3.12915H17.7135C18.1032 3.12915 18.4975 3.15201 18.8849 3.19715C19.1981 3.23315 19.4232 3.51658 19.3867 3.83029C19.3535 4.12172 19.1055 4.33601 18.8198 4.33601Z" fill="#F4BF1A"/>
<path d="M3.71307 16.5714H0.285645C0.297073 16.956 0.318787 17.3371 0.353645 17.7143H3.78393C3.7485 17.3371 3.72507 16.956 3.71307 16.5714Z" fill="#DCA815"/>
<path d="M3.84393 13.7142H0.417643C0.370214 14.0908 0.335929 14.4725 0.3125 14.8571H3.7405C3.7645 14.4725 3.7965 14.0908 3.84393 13.7142Z" fill="#DCA815"/>
<path d="M4.02729 19.4286H0.598145C0.67243 19.8149 0.758145 20.196 0.855859 20.5714H4.28386C4.18672 20.196 4.10157 19.8149 4.02729 19.4286Z" fill="#DCA815"/>
<path d="M4.82685 22.2858H1.396C1.54171 22.6755 1.70285 23.0555 1.87428 23.4286H5.30342C5.132 23.0561 4.97257 22.6749 4.82685 22.2858Z" fill="#DCA815"/>
<path d="M4.44121 10.8572H1.01664C0.905213 11.2326 0.801213 11.6126 0.714355 12H4.14693C4.23378 11.6137 4.33036 11.2315 4.44121 10.8572Z" fill="#DCA815"/>
<path d="M5.57921 8H2.15064C1.96207 8.372 1.78436 8.75257 1.62207 9.14286H5.05293C5.21521 8.75314 5.39064 8.372 5.57921 8Z" fill="#DCA815"/>
<path d="M7.91119 4.57141H4.47861C4.15347 4.93484 3.84433 5.31598 3.55176 5.71427H6.98319C7.27633 5.31598 7.58604 4.93484 7.91119 4.57141Z" fill="#DCA815"/>
<path d="M11.4057 1.71423H7.96971C7.38571 2.05138 6.82571 2.43309 6.29199 2.85709H9.72571C10.26 2.43309 10.8211 2.05138 11.4057 1.71423Z" fill="#DCA815"/>
<path d="M6.58214 25.7142H3.15186C3.417 26.1102 3.697 26.4914 3.993 26.8571H7.42557C7.12957 26.4914 6.84786 26.1102 6.58214 25.7142Z" fill="#DCA815"/>
<path d="M5.61816 28.5714C6.07702 28.9846 6.55759 29.368 7.06045 29.7143H10.497C9.99188 29.3674 9.50616 28.9863 9.04559 28.5714H5.61816Z" fill="#DCA815"/>
</svg>
