<svg width="24" height="24" viewBox="0 0 24 24" fill="none" xmlns="http://www.w3.org/2000/svg">
<g clip-path="url(#clip0)">
<path d="M4.49999 20.4375H19.5C19.9127 20.4375 20.2769 20.1676 20.3969 19.7727L23.9594 8.05392C24.0679 7.6972 23.9546 7.31011 23.671 7.06809C23.3874 6.82608 22.9874 6.77513 22.6521 6.9383L17.5219 9.4358L12.7082 3.88575C12.5301 3.68044 12.2718 3.5625 12 3.5625C11.7282 3.5625 11.4698 3.68044 11.2918 3.88575L6.47807 9.43584L1.34788 6.93834C1.01258 6.77513 0.612507 6.82613 0.329006 7.06814C0.0453663 7.31016 -0.0678844 7.69725 0.0405846 8.05397L3.60308 19.7727C3.72308 20.1676 4.0873 20.4375 4.49999 20.4375ZM18.8052 18.5625H5.19491L2.45961 9.56494L6.3044 11.4367C6.686 11.6225 7.14487 11.5287 7.42293 11.208L12 5.93086L16.577 11.208C16.8551 11.5287 17.3138 11.6225 17.6956 11.4367L21.5404 9.56494L18.8052 18.5625Z" fill="#FBD15B"/>
</g>
<defs>
<clipPath id="clip0">
<rect width="24" height="24" fill="white" transform="matrix(-1 0 0 1 24 0)"/>
</clipPath>
</defs>
</svg>
