<svg width="64" height="64" viewBox="0 0 64 64" fill="none" xmlns="http://www.w3.org/2000/svg">
<path d="M57.3333 55.6H6.6665C11.4665 48.4 14.1331 39.8666 14.1331 31.0666V18.1334C14.1331 8.26675 22.1331 0.266754 31.9998 0.266754C41.8664 0.266754 49.8664 8.26675 49.8664 18.1334V31.0668C49.8665 39.7334 52.3999 48.2666 57.3333 55.6Z" fill="#344A5E"/>
<path d="M26.2668 64L20.0002 44.6666L11.0668 47.7332C5.33342 49.7332 1.4668 55.1999 1.4668 61.3332V64H26.2668Z" fill="#66C6B9"/>
<path d="M62.5334 64V61.3334C62.5334 55.2 58.6668 49.7334 52.9334 47.7334L44 44.6666L37.7334 64H62.5334Z" fill="#66C6B9"/>
<path d="M37.7331 64L43.1997 46.6666H22.9331L26.2664 64H37.7331Z" fill="#CED6E0"/>
<path d="M40.7997 32.2666L31.9997 25.3334L23.1997 32.2666V39.7334L31.9997 46.6666L40.7997 39.7334V32.2666Z" fill="#F7B64C"/>
<path d="M45.2003 20.9334C45.2003 32.4 39.3337 41.7334 32.0003 41.7334C24.6669 41.7334 18.8003 32.4 18.8003 20.9334C18.8003 20.5334 18.8003 18.1334 18.8003 17.7334C19.4669 17.6 31.2003 16.4 34.8003 10.8C38.0003 13.4666 40.2669 14.8 44.9337 15.6C45.067 16.2666 45.067 19.0666 45.067 19.8666C45.2003 20.1334 45.2003 20.5334 45.2003 20.9334Z" fill="#FFD15C"/>
<path d="M48.6666 27.3334C48.2666 27.3334 47.8666 27.6 47.7332 28.1334C47.4666 31.8668 44.5332 34.8 40.7998 35.0668L34.5332 35.6002V37.3335L40.9332 36.8002C45.4666 36.4002 49.0666 32.8002 49.3332 28.2668C49.4666 27.7334 49.1999 27.3334 48.6666 27.3334Z" fill="#E8EAE9"/>
<path d="M40.8 39.7334L32 46.6666L39.3334 55.2L43.2 45.0666L40.8 39.7334Z" fill="#F3F3F3"/>
<path d="M42.7999 64L47.3333 53.6L43.1999 50L49.7333 49.3334L41.7333 41.7334L36.3999 64H42.7999Z" fill="#4EC0AA"/>
<path d="M15.6 23.4666C14.2666 17.7334 15.8666 11.7334 20 7.6C23.3334 4.4 27.4666 2.66663 32 2.66663C36.5334 2.66663 40.6666 4.4 43.8666 7.6C48.1332 11.8666 49.7332 17.8666 48.2666 23.4666H51.0666C52.4 17.0666 50.5334 10.4 45.7334 5.6C42.1334 2 37.2 0 32 0C26.8 0 21.8666 2 18.2666 5.73338C13.6 10.4 11.6 17.2 12.9334 23.6H15.6V23.4666Z" fill="#F3705A"/>
<path d="M46.2666 30.1334C49.0666 30.5334 51.6 28.8 52.1332 26C52.5332 23.2 50.7999 20.6666 47.9999 20.1334L46.2666 30.1334Z" fill="#F3705A"/>
<path d="M44.6666 31.3334C45.4666 31.4668 46.2666 30.9334 46.3999 30.1334L48.1333 20.1334C48.2667 19.3334 47.7333 18.5334 46.9333 18.4C46.1333 18.2666 45.3333 18.8 45.1999 19.6L43.4666 29.6C43.1999 30.4 43.7333 31.2 44.6666 31.3334Z" fill="#E8EAE9"/>
<path d="M17.7334 30.1334C14.9334 30.5334 12.4 28.8 11.8667 26C11.4667 23.2 13.2001 20.6666 16.0001 20.1334L17.7334 30.1334Z" fill="#F3705A"/>
<path d="M19.3334 31.3334C18.5334 31.4668 17.7334 30.9334 17.6 30.1334L15.8666 20.1334C15.7332 19.3334 16.2666 18.5334 17.0666 18.4C17.8666 18.2666 18.6666 18.8 18.8 19.6L20.5334 29.6C20.8 30.4 20.2666 31.2 19.3334 31.3334Z" fill="#E8EAE9"/>
<path d="M32.9332 38.5334C34.2587 38.5334 35.3332 37.638 35.3332 36.5334C35.3332 35.4288 34.2587 34.5334 32.9332 34.5334C31.6077 34.5334 30.5332 35.4288 30.5332 36.5334C30.5332 37.638 31.6077 38.5334 32.9332 38.5334Z" fill="#344A5E"/>
<path d="M23.2003 39.7334L32.0003 46.6666L24.6669 55.2L20.8003 45.0666L23.2003 39.7334Z" fill="#F3F3F3"/>
<path d="M21.2 64L16.6666 53.6L20.8 50L14.2666 49.3334L22.2666 41.7334L27.6 64H21.2Z" fill="#4EC0AA"/>
</svg>
