<svg width="80" height="80" viewBox="0 0 80 80" fill="none" xmlns="http://www.w3.org/2000/svg">
<path d="M79.8338 9.16672L71.6672 7.83328L70.3338 0L69.1672 8L61.5005 9.16672L69.1672 10.3333L70.3338 18.3333L71.6672 10.5L79.8338 9.16672Z" fill="#FFD15C"/>
<path d="M13.8336 0L13.5003 3.16672L10.167 3.66672L13.3336 4.16672L13.8336 7.33328L14.5003 4.16672L17.667 3.66672L14.3336 3.16672L13.8336 0Z" fill="#FFD15C"/>
<path d="M9.33355 10.1667L8.50027 4.5L7.66699 10.1667L2.16699 11L7.66699 12L8.50027 17.6667L9.33355 12L15.167 11L9.33355 10.1667Z" fill="#CDD6E0"/>
<path d="M52.5002 33.6667L42.3335 14.3333H38.1669L26.8335 33.6667H52.5002Z" fill="#84DBFF"/>
<path d="M65.4997 14.3333H42.333L52.4997 33.6667L65.4997 14.3333Z" fill="#54C0EB"/>
<path d="M79.5 33.6667L65.6667 14.3333H65.5L52.5 33.6667H79.5Z" fill="#84DBFF"/>
<path d="M39.8335 80L52.5002 33.6667H26.8335L39.8335 80Z" fill="#F2F2F2"/>
<path d="M38.167 14.3333H14.167L26.8336 33.6667L38.167 14.3333Z" fill="#54C0EB"/>
<path d="M14.167 14.3333H14.0003L0.166992 33.6667H26.8336L14.167 14.3333Z" fill="#84DBFF"/>
<path d="M79.5003 33.6667L39.8336 80L0.166992 33.6667H26.8336L39.8336 80L52.5003 33.6667H79.5003Z" fill="#54C0EB"/>
<path d="M52.5002 28.5L51.8335 32.8333L47.3335 33.5L51.8335 34.1667L52.5002 38.8333L53.1669 34.1667L57.6669 33.5L53.1669 32.8333L52.5002 28.5Z" fill="white"/>
<path d="M19.8336 18.8333L19.167 23.1667L14.667 23.8333L19.0003 24.5L19.8336 29.1667L20.5003 24.6667L25.0003 23.8333L20.5003 23.1667L19.8336 18.8333Z" fill="white"/>
</svg>
