<svg width="64" height="64" viewBox="0 0 64 64" fill="none" xmlns="http://www.w3.org/2000/svg">
<g clip-path="url(#clip0)">
<path d="M64 4.06931H0V8.13859H64V4.06931Z" fill="#FFD15C"/>
<path d="M64 42.1039H0V46.1732H64V42.1039Z" fill="#FFD15C"/>
<path d="M60.4096 8.13858H3.57812V42.0913H60.4096V8.13858Z" fill="#FAFAFA"/>
<path d="M42.8599 0H21.1528V4.06929H42.8599V0Z" fill="#F8B64C"/>
<path d="M55.458 64H45.7825L41.7636 56.3654H22.236L18.2171 64H8.5415L16.8691 48.1638L17.9147 46.1732H27.5903L26.5573 48.1638L24.0376 52.9512H39.9746L37.4549 48.1638L36.4092 46.1732H46.0848L47.1179 48.1638L55.458 64Z" fill="#FFD15C"/>
<path d="M28.2705 20.2079L18.6201 25.1339L26.28 32.7937C29.6563 29.4047 30.4374 24.4662 28.2705 20.2079Z" fill="#FFD15C"/>
<path d="M20.3087 14.4126L18.6079 25.1213L28.2583 20.1953C26.6457 17.0079 23.8615 14.9795 20.3087 14.4126Z" fill="#84DBFF"/>
<path d="M18.6203 25.1213L20.3211 14.4126C16.7809 13.8457 13.5053 14.9165 10.9604 17.4488C6.72738 21.6819 6.72738 28.5481 10.9604 32.7811C15.1935 37.0142 22.0471 37.0142 26.2801 32.7811L18.6203 25.1213Z" fill="#FF7058"/>
<path d="M37.1778 27.2504H32.9951V34.9858H37.1778V27.2504Z" fill="#CDD6E0"/>
<path d="M43.8043 23.2567H39.6216V34.9858H43.8043V23.2567Z" fill="#CDD6E0"/>
<path d="M50.4439 19.2504H46.2612V34.9858H50.4439V19.2504Z" fill="#CDD6E0"/>
<path d="M57.0709 15.2567H52.8882V34.9858H57.0709V15.2567Z" fill="#CDD6E0"/>
<path d="M27.5904 46.1732L26.5573 48.1638H16.8691L17.9148 46.1732H27.5904Z" fill="#F8B64C"/>
<path d="M47.1178 48.1638H37.4548L36.4092 46.1732H46.0848L47.1178 48.1638Z" fill="#F8B64C"/>
<path d="M60.4096 8.13858H3.57812V10.1291H60.4096V8.13858Z" fill="#CDD6E0"/>
</g>
<defs>
<clipPath id="clip0">
<rect width="64" height="64" fill="white"/>
</clipPath>
</defs>
</svg>
