<svg width="24" height="24" viewBox="0 0 24 24" fill="none" xmlns="http://www.w3.org/2000/svg">
<g clip-path="url(#clip0)">
<path d="M11.7953 23.9773C11.367 23.8815 11.0625 23.5013 11.0625 23.0624V14.9097H5.8594C5.53836 14.9097 5.23967 14.7454 5.06773 14.4743C4.89575 14.2033 4.87446 13.863 5.01129 13.5726L11.1519 0.538036C11.339 0.141004 11.7762 -0.0730745 12.2047 0.0226913C12.633 0.118504 12.9375 0.498614 12.9375 0.937506V9.0903H18.1407C18.4617 9.0903 18.7604 9.25455 18.9324 9.52563C19.1043 9.79671 19.1256 10.1369 18.9888 10.4273L12.8482 23.4619C12.6622 23.8565 12.2265 24.0736 11.7953 23.9773ZM7.33738 13.0347H12C12.5178 13.0347 12.9375 13.4544 12.9375 13.9722V18.8726L16.6627 10.9653H12C11.4823 10.9653 11.0625 10.5456 11.0625 10.0278V5.12734L7.33738 13.0347Z" fill="#FBD15B"/>
</g>
<defs>
<clipPath id="clip0">
<rect width="24" height="24" fill="white"/>
</clipPath>
</defs>
</svg>
