<svg width="80" height="80" viewBox="0 0 80 80" fill="none" xmlns="http://www.w3.org/2000/svg">
<g clip-path="url(#clip0)">
<path d="M68.9508 1.86164C67.4468 -0.310825 64.1047 -0.64499 61.5981 1.19315C60.0941 2.36296 57.2533 5.20376 55.7493 7.87755C54.2454 5.20376 51.4046 2.36296 49.9006 1.19315C47.394 -0.64499 44.0518 -0.310825 42.5479 1.86164C41.0439 4.0341 41.8794 7.20906 44.386 9.04736C46.3913 10.3842 51.7387 12.5566 54.7467 12.3895C55.4152 12.3895 56.2507 12.3895 56.9191 12.3895C59.9271 12.5566 65.2745 10.3842 67.2798 9.04736C69.7864 7.37622 70.4549 4.03395 68.9508 1.86164ZM46.057 6.70774C44.8872 5.87225 44.3858 4.36827 44.8872 3.53262C45.2213 3.03129 46.057 2.86413 46.3911 2.86413C47.0596 2.86413 47.728 3.03129 48.2293 3.53262C49.9004 4.70243 52.2399 7.54323 53.2425 9.38137C50.9032 9.0472 47.394 7.71039 46.057 6.70774ZM65.4417 6.70774C64.1049 7.71039 60.5956 9.0472 58.089 9.38153C59.0916 7.54338 61.5982 4.53543 63.1022 3.53278C63.7707 3.19861 64.439 2.86429 65.1075 2.86429C65.4417 2.86429 66.1102 2.86429 66.6115 3.53278C67.1127 4.36827 66.6113 5.87225 65.4417 6.70774Z" fill="#FF7058"/>
<path d="M75.8022 21.5804H35.6961C33.858 21.5804 32.354 20.0764 32.354 18.2383V15.2303C32.354 13.3922 33.858 11.8882 35.6961 11.8882H75.8022C77.6403 11.8882 79.1443 13.3922 79.1443 15.2303V18.2383C79.1443 20.0764 77.6403 21.5804 75.8022 21.5804Z" fill="#FFD15C"/>
<path d="M73.4631 46.981H38.036C36.1978 46.981 34.6938 45.477 34.6938 43.6389V21.5806H76.8052V43.6389C76.8052 45.477 75.3012 46.981 73.4631 46.981Z" fill="#F8B64C"/>
<path d="M60.2612 11.8882H51.2373V46.8138H60.2612V11.8882Z" fill="#FF7058"/>
<path opacity="0.1" d="M76.6381 21.5803H34.6938V23.2515H76.6381V21.5803Z" fill="#231F20"/>
<path d="M76.3036 54.8348C76.3036 54.8348 68.2824 61.1849 63.7705 63.1902C63.7705 63.1902 53.9112 68.5376 44.553 68.872H30.0145C30.0145 68.872 27.3407 68.3706 23.8314 70.7101C23.3301 71.0443 22.996 71.2114 22.4946 71.7127C21.8261 72.2141 20.9907 72.8826 20.3222 73.718L8.62451 56.673C8.62451 56.673 9.62716 56.0045 10.964 54.8348C11.2981 54.5007 11.7995 54.1664 12.1338 53.665C13.1364 52.8295 14.1391 51.6597 15.1417 50.4899C15.1417 50.4899 21.3248 42.4687 35.1948 47.3148C44.8871 50.6569 46.0568 50.8241 46.0568 50.8241C46.0568 50.8241 51.9055 51.4926 57.5873 51.4926C57.5873 51.4926 62.2664 51.4926 62.0992 55.0018C62.0992 56.1717 61.4307 57.1743 60.5952 58.0098C59.4254 59.0124 57.2531 60.1823 53.2425 60.5164C51.5714 60.6836 49.7332 60.6836 48.0621 60.5164C43.7173 60.1823 38.5369 59.3466 37.5342 60.0151C37.5342 60.0151 36.1974 61.0177 41.3777 61.6862C41.3777 61.6862 45.2211 62.1876 52.0727 62.3547C52.0727 62.3547 64.4387 61.8534 63.9374 53.1637C63.9374 53.1637 68.2821 50.4899 70.7888 49.4873C70.7888 49.4873 77.8073 45.3095 79.4785 47.9833C79.6458 48.1504 81.6511 50.8242 76.3036 54.8348Z" fill="#CDD6E0"/>
<path d="M60.2613 53.9996C59.76 53.4982 58.4232 53.1641 57.7547 53.1641H56.9192C56.2507 53.1641 55.7494 53.1641 55.0811 53.1641V58.6786C57.4205 58.1773 58.7575 57.3418 59.593 56.8405C60.0943 56.3392 60.4285 55.6707 60.5956 55.0024C60.4285 54.3337 60.2613 54.1666 60.2613 53.9996Z" fill="white"/>
<path d="M23.8314 70.7104C23.3301 71.0445 22.996 71.2117 22.4946 71.713C21.8261 72.2143 20.9907 72.8828 20.3222 73.7183L8.62451 56.6732C8.62451 56.6732 9.62716 56.0048 10.964 54.8351C11.2981 54.5009 11.7995 54.1666 12.1338 53.6653L23.8314 70.7104Z" fill="#ACB3BA"/>
<path d="M15.4569 80.0013L24.1294 74.0344L8.69118 51.5961L0.018729 57.5631L15.4569 80.0013Z" fill="#40596B"/>
<path d="M17.4811 75.5566C18.7731 75.5566 19.8205 74.5092 19.8205 73.2172C19.8205 71.9251 18.7731 70.8777 17.4811 70.8777C16.189 70.8777 15.1416 71.9251 15.1416 73.2172C15.1416 74.5092 16.189 75.5566 17.4811 75.5566Z" fill="#FF7058"/>
</g>
<defs>
<clipPath id="clip0">
<rect width="80" height="80" fill="white"/>
</clipPath>
</defs>
</svg>
