<svg width="48" height="48" viewBox="0 0 48 48" fill="none" xmlns="http://www.w3.org/2000/svg">
<path d="M42.375 2.625H5.625C2.52319 2.625 0 5.14819 0 8.25V22.875H3.75V16.875C3.75 13.875 4.96985 13.875 5.625 13.875C8.72681 13.875 11.25 11.3518 11.25 8.25C11.25 7.16345 12.4329 6.375 14.0625 6.375H33.9375C35.5671 6.375 36.75 7.16345 36.75 8.25C36.75 11.3518 39.2732 13.875 42.375 13.875C43.0302 13.875 44.25 13.875 44.25 16.875V23.625C44.25 26.625 43.0302 26.625 42.375 26.625C39.2732 26.625 36.75 29.1482 36.75 32.25C36.75 33.3365 35.5671 34.125 33.9375 34.125H19.9688V37.875H42.375C45.4768 37.875 48 35.3518 48 32.25V8.25C48 5.14819 45.4768 2.625 42.375 2.625ZM7.5 8.25C7.5 9.28381 6.65881 10.125 5.625 10.125C4.95374 10.125 4.32605 10.222 3.75 10.4088V8.25C3.75 7.21619 4.59119 6.375 5.625 6.375H7.84753C7.62268 6.95691 7.5 7.58606 7.5 8.25ZM42.375 34.125H40.1525C40.3773 33.5431 40.5 32.9139 40.5 32.25C40.5 31.2162 41.3412 30.375 42.375 30.375C43.0463 30.375 43.674 30.278 44.25 30.0912V32.25C44.25 33.2838 43.4088 34.125 42.375 34.125ZM42.375 10.125C41.3412 10.125 40.5 9.28381 40.5 8.25C40.5 7.58606 40.3773 6.95691 40.1525 6.375H42.375C43.4088 6.375 44.25 7.21619 44.25 8.25V10.4088C43.674 10.222 43.0463 10.125 42.375 10.125ZM38.9062 22.1136C37.8706 22.1136 37.0312 21.2743 37.0312 20.2386C37.0312 19.203 37.8706 18.3636 38.9062 18.3636C39.9419 18.3636 40.7812 19.203 40.7812 20.2386C40.7812 21.2743 39.9419 22.1136 38.9062 22.1136ZM9.09375 22.1136C8.05811 22.1136 7.21875 21.2743 7.21875 20.2386C7.21875 19.203 8.05811 18.3636 9.09375 18.3636C10.1294 18.3636 10.9688 19.203 10.9688 20.2386C10.9688 21.2743 10.1294 22.1136 9.09375 22.1136ZM0 34.125H16.2188V37.875H0V34.125ZM0 26.625H19.0312V30.375H0V26.625ZM0 41.625H13.4062V45.375H0V41.625ZM29.7188 20.2386C29.7188 16.6201 27.1534 13.6761 24 13.6761C20.8466 13.6761 18.2812 16.6201 18.2812 20.2386C18.2812 21.1761 18.4548 22.0675 18.7646 22.875H14.8455C14.6407 22.0331 14.5312 21.1494 14.5312 20.2386C14.5312 14.5521 18.7789 9.9375 24 9.9375C29.2211 9.9375 33.4688 14.5521 33.4688 20.2386C33.4688 25.9248 29.2211 30.5511 24 30.5511C23.5873 30.5511 23.1804 30.5219 22.7812 30.4658V26.6495C23.1742 26.7477 23.5818 26.8011 24 26.8011C27.1534 26.8011 29.7188 23.8572 29.7188 20.2386Z" fill="#0084E9"/>
</svg>
