<svg width="80" height="80" viewBox="0 0 80 80" fill="none" xmlns="http://www.w3.org/2000/svg">
<g clip-path="url(#clip0)">
<path d="M77.4807 27.1431V53.4881C77.4807 55.6558 75.8132 57.3231 73.6457 57.3231H15.4531C13.2855 57.3231 11.6182 55.6556 11.6182 53.4881V27.1431C11.6182 24.9754 13.2856 23.3081 15.4531 23.3081H73.4789C75.6466 23.3081 77.4807 25.1422 77.4807 27.1431Z" fill="#4CDBC4"/>
<path d="M15.4531 46.9855V33.813C19.1215 33.813 22.1228 30.8117 22.1228 27.1433H67.1428C67.1428 30.8117 70.1441 33.813 73.8124 33.813V46.9855C70.1441 46.9855 67.1428 49.9869 67.1428 53.6552H22.1228C22.1228 49.9869 19.1215 46.9855 15.4531 46.9855Z" fill="#F2F2F2"/>
<path d="M28.7922 42.4831C29.9894 42.4831 30.9599 41.5126 30.9599 40.3154C30.9599 39.1182 29.9894 38.1477 28.7922 38.1477C27.595 38.1477 26.6245 39.1182 26.6245 40.3154C26.6245 41.5126 27.595 42.4831 28.7922 42.4831Z" fill="#4CDBC4"/>
<path d="M60.3059 42.4831C61.503 42.4831 62.4735 41.5126 62.4735 40.3154C62.4735 39.1182 61.503 38.1477 60.3059 38.1477C59.1087 38.1477 58.1382 39.1182 58.1382 40.3154C58.1382 41.5126 59.1087 42.4831 60.3059 42.4831Z" fill="#4CDBC4"/>
<path d="M52.9694 40.3155C52.9694 46.1513 49.301 50.8201 44.6324 50.8201C43.9654 50.8201 43.4652 50.6533 42.7983 50.6533C39.1299 49.6529 36.2954 45.3177 36.2954 40.3155C36.2954 40.1487 36.2954 39.8152 36.2954 39.6484C36.6288 34.146 40.1304 29.8108 44.6324 29.8108C49.1344 29.8108 52.9694 34.4796 52.9694 40.3155Z" fill="#4CDBC4"/>
<path d="M43.9654 44.4841V40.8158C42.7981 40.4824 41.9645 39.9821 41.4643 39.3151C40.964 38.6481 40.6306 37.8145 40.6306 36.814C40.6306 35.8136 40.964 34.9799 41.4643 34.3129C42.1313 33.6459 42.9649 33.3125 43.9654 33.1457V32.312H45.2993V33.3125C46.2997 33.4792 46.9667 33.8127 47.4669 34.3129C47.9672 34.8131 48.3006 35.4801 48.4674 36.4806L46.2997 36.6474C46.1329 35.9804 45.7995 35.4801 45.2993 35.1467V38.6483C46.7999 38.9817 47.6336 39.4819 48.1338 40.1489C48.634 40.8159 48.9674 41.4828 48.9674 42.4832C48.9674 43.4837 48.634 44.4841 47.967 45.1511C47.3 45.8182 46.4663 46.3184 45.2991 46.485V48.1525H43.9652V46.485C42.9648 46.3182 42.1311 45.9848 41.4641 45.3178C40.7971 44.6508 40.4637 43.8171 40.2969 42.6499L42.6312 42.4831C42.798 42.9833 42.9646 43.3167 43.1314 43.6503C43.2985 44.1505 43.632 44.3173 43.9654 44.4841ZM43.9654 35.3133C43.632 35.4801 43.2984 35.6468 43.1317 35.9804C42.9651 36.3139 42.7983 36.6474 42.7983 36.9808C42.7983 37.3142 42.9651 37.6478 43.1317 37.8145C43.2985 38.1479 43.632 38.3147 43.9654 38.4815V35.3133ZM45.1326 44.6508C45.6328 44.6508 45.9663 44.3173 46.1331 43.9838C46.6333 43.6503 46.6333 43.3167 46.6333 42.8165C46.6333 42.4831 46.4665 42.1495 46.2999 41.8161C46.1332 41.4826 45.6328 41.3158 45.1326 41.1491V44.6508Z" fill="white"/>
<path d="M69.9769 13.804L76.1463 39.3154C76.6465 41.3162 75.3127 43.4839 73.3118 43.9841L16.9535 57.6569C14.9526 58.1571 12.7849 56.8233 12.2847 54.8224L6.11526 29.3111C5.61504 27.3102 6.94891 25.1425 8.9498 24.6423L65.3081 10.9695C67.4757 10.4693 69.4766 11.8032 69.9769 13.804Z" fill="#4CDBC4"/>
<path d="M14.4528 47.4854L11.2847 34.6464C14.7862 33.8128 17.1205 30.1444 16.1201 26.6429L59.8062 15.9714C60.6398 19.473 64.3082 21.8073 67.8097 20.8069L70.9779 33.6458C67.4763 34.4795 65.142 38.1478 66.1424 41.6494L22.4563 52.3208C21.6227 48.8193 17.9543 46.6516 14.4528 47.4854Z" fill="#F2F2F2"/>
<path d="M25.9577 40.1491C27.1549 40.1491 28.1254 39.1786 28.1254 37.9814C28.1254 36.7842 27.1549 35.8137 25.9577 35.8137C24.7605 35.8137 23.79 36.7842 23.79 37.9814C23.79 39.1786 24.7605 40.1491 25.9577 40.1491Z" fill="#4CDBC4"/>
<path d="M56.4714 32.8124C57.6686 32.8124 58.6391 31.8419 58.6391 30.6447C58.6391 29.4476 57.6686 28.4771 56.4714 28.4771C55.2742 28.4771 54.3037 29.4476 54.3037 30.6447C54.3037 31.8419 55.2742 32.8124 56.4714 32.8124Z" fill="#4CDBC4"/>
<path d="M49.3015 32.3123C50.6354 37.9815 48.1343 43.4839 43.6323 44.4844C42.9653 44.6512 42.4651 44.6512 41.7982 44.6512C37.9632 44.4844 34.1281 41.1496 32.961 36.1474C32.961 35.9806 32.7942 35.6472 32.7942 35.4804C31.7938 29.978 34.2949 24.9758 38.6301 23.8085C43.1321 22.9749 47.9675 26.6431 49.3015 32.3123Z" fill="#4CDBC4"/>
<path d="M41.6311 38.4817L40.7975 34.8133C39.6302 34.8133 38.6298 34.4799 37.9629 33.9797C37.2959 33.4795 36.7957 32.6458 36.6291 31.812C36.4623 30.8116 36.4623 29.9779 36.9625 29.1441C37.4627 28.3105 38.1297 27.8102 39.1302 27.4767L38.9634 26.643L40.1306 26.3096L40.2974 27.1432C41.2979 26.9764 41.9649 27.1432 42.6317 27.4767C43.2987 27.8101 43.799 28.4771 44.1324 29.3107L41.9647 30.1444C41.6313 29.4774 41.1311 29.144 40.6308 28.9772L41.4645 32.3119C42.9652 32.3119 43.9656 32.6454 44.6326 33.1456C45.2996 33.6458 45.6331 34.3128 45.9665 35.3133C46.2999 36.3137 46.1333 37.3141 45.6331 38.1478C45.1328 38.9814 44.4658 39.6485 43.2987 40.1487L43.6322 41.8161L42.4649 42.1496L42.1315 40.6489C41.1311 40.8157 40.1306 40.6489 39.4636 40.1487C38.6299 39.6485 38.1297 38.9814 37.6295 37.8144L39.7972 36.9807C39.964 37.4809 40.2974 37.8144 40.6308 37.9812C40.7975 38.3149 41.1309 38.4817 41.6311 38.4817ZM39.2968 29.4777C38.9634 29.6445 38.7966 29.9779 38.6298 30.3113C38.463 30.6448 38.463 30.9784 38.6298 31.3118C38.6298 31.6452 38.7966 31.812 39.13 32.1454C39.2968 32.3122 39.6302 32.4789 40.1305 32.6457L39.2968 29.4777ZM42.7984 38.3149C43.1318 38.1481 43.4654 37.8147 43.632 37.4812C43.7987 37.1478 43.7988 36.6476 43.7988 36.314C43.632 35.9806 43.4654 35.647 43.2986 35.4804C42.9652 35.3136 42.6316 35.1469 41.9647 35.1469L42.7984 38.3149Z" fill="white"/>
<path d="M58.8058 1.9654L70.8112 25.309C71.8116 27.1431 70.978 29.4776 69.1437 30.478L17.6209 57.1566C15.7868 58.157 13.4523 57.3234 12.4519 55.4891L0.446548 32.1455C-0.553895 30.3114 0.279755 27.9769 2.11401 26.9765L53.6368 0.46473C55.6377 -0.535713 57.972 0.131145 58.8058 1.9654Z" fill="#4CDBC4"/>
<path d="M12.7854 47.9858L6.78271 36.3139C10.1175 34.6465 11.2847 30.6447 9.61725 27.3099L49.635 6.63403C51.3025 9.96879 55.3042 11.136 58.639 9.46857L64.6416 21.1405C61.3069 22.8079 60.1397 26.8097 61.8071 30.1445L21.7894 50.6535C20.1219 47.6524 16.1201 46.3183 12.7854 47.9858Z" fill="#F2F2F2"/>
<path d="M21.7893 38.1481C22.9864 38.1481 23.9569 37.1776 23.9569 35.9804C23.9569 34.7832 22.9864 33.8127 21.7893 33.8127C20.5921 33.8127 19.6216 34.7832 19.6216 35.9804C19.6216 37.1776 20.5921 38.1481 21.7893 38.1481Z" fill="#4CDBC4"/>
<path d="M49.635 23.8082C50.8321 23.8082 51.8026 22.8377 51.8026 21.6406C51.8026 20.4434 50.8321 19.4729 49.635 19.4729C48.4378 19.4729 47.4673 20.4434 47.4673 21.6406C47.4673 22.8377 48.4378 23.8082 49.635 23.8082Z" fill="#4CDBC4"/>
<path d="M43.1322 24.9755C45.8001 30.1445 44.6329 36.1472 40.6311 38.1481C40.1309 38.4815 39.4639 38.6483 38.9637 38.8151C35.1287 39.6488 30.7933 37.1477 28.459 32.6457C28.2922 32.4789 28.2922 32.3122 28.1256 32.1454C25.7913 27.1432 27.1251 21.474 30.9601 19.4731C34.9619 17.3054 40.4643 19.8065 43.1322 24.9755Z" fill="#4CDBC4"/>
<path d="M37.1294 32.8123L35.462 29.4775C34.2947 29.6443 33.2943 29.6443 32.4606 29.3107C31.627 28.9773 31.1268 28.3103 30.6266 27.4766C30.1263 26.643 30.1263 25.8092 30.2931 24.8087C30.4599 23.9751 31.1268 23.3081 31.9606 22.641L31.6272 21.8074L32.7944 21.1404L33.1278 21.974C33.9615 21.6406 34.7953 21.6406 35.6289 21.8072C36.2959 21.974 36.9628 22.4743 37.463 23.1411L35.6289 24.475C35.1287 23.9748 34.6285 23.6413 33.9615 23.6413L35.6289 26.6427C37.1296 26.3092 38.13 26.3092 38.9637 26.6427C39.6307 26.9761 40.2976 27.4763 40.7978 28.3101C41.298 29.3106 41.4648 30.1442 41.1312 31.1447C40.9644 32.1451 40.2976 32.9788 39.2971 33.6458L40.1308 35.1464L38.9635 35.8134L38.2965 34.3128C37.2961 34.6462 36.4624 34.6462 35.6286 34.4796C34.795 34.1461 33.9612 33.6459 33.2943 32.6455L34.9618 31.645C35.2952 31.9785 35.6288 32.3121 35.9622 32.4787C36.2956 32.6453 36.6292 32.8123 37.1294 32.8123ZM32.7942 24.4753C32.4608 24.8087 32.4608 24.9755 32.294 25.4757C32.294 25.8092 32.294 26.1428 32.4608 26.4762C32.6276 26.8096 32.7942 26.9764 33.1278 27.1432C33.4612 27.31 33.7948 27.31 34.1283 27.31L32.7942 24.4753ZM38.2967 32.3121C38.6301 31.9786 38.7969 31.645 38.9637 31.3116C39.1305 30.8114 38.9637 30.478 38.7969 30.1444C38.6301 29.8109 38.2967 29.4774 37.9632 29.4774C37.6298 29.3106 37.1296 29.3106 36.6294 29.4774L38.2967 32.3121Z" fill="white"/>
<path d="M79.815 71.9965C79.815 76.4985 71.9783 80.0001 62.3073 80.0001C52.8031 80.0001 44.9663 76.3317 44.9663 71.9965V66.6609H79.9818V71.9965H79.815Z" fill="#F8B64C"/>
<path d="M62.4736 74.4976C72.1428 74.4976 79.9813 70.9143 79.9813 66.494C79.9813 62.0738 72.1428 58.4905 62.4736 58.4905C52.8043 58.4905 44.9658 62.0738 44.9658 66.494C44.9658 70.9143 52.8043 74.4976 62.4736 74.4976Z" fill="#FFD15C"/>
<path d="M62.4739 73.1636C70.3935 73.1636 76.8136 70.1774 76.8136 66.4939C76.8136 62.8103 70.3935 59.8242 62.4739 59.8242C54.5544 59.8242 48.1343 62.8103 48.1343 66.4939C48.1343 70.1774 54.5544 73.1636 62.4739 73.1636Z" fill="#F8B64C"/>
<path d="M61.4736 69.3286V66.8275C59.8062 66.6607 58.4723 66.3273 57.6386 65.827C56.805 65.3268 56.4714 64.8266 56.4714 64.1596C56.4714 63.4926 56.9716 62.9923 57.8053 62.4921C58.6389 61.9919 59.973 61.8251 61.4736 61.6585V60.9915H63.3077V61.6585C64.6416 61.6585 65.8088 61.9919 66.6425 62.3255C67.4761 62.6589 67.9764 63.1591 68.1432 63.8261L64.8084 63.9929C64.6416 63.4927 64.1414 63.1593 63.3077 62.9925V65.3268C65.4754 65.6602 66.8093 65.9938 67.6429 66.3273C68.4766 66.6607 68.8102 67.3277 68.8102 67.9947C68.8102 68.6617 68.3099 69.3286 67.3095 69.8288C66.3091 70.329 64.9752 70.6625 63.3077 70.8293V71.9965H61.4736V70.8293C59.973 70.6625 58.8057 70.4958 57.8053 69.9956C56.8048 69.4954 56.3046 68.9952 55.9712 68.1615L59.4727 67.9947C59.6395 68.3281 59.8062 68.6617 60.3064 68.8284C60.64 69.162 60.9734 69.3286 61.4736 69.3286ZM61.4736 62.9925C60.9734 62.9925 60.4732 63.1593 60.3064 63.3259C59.973 63.4927 59.8062 63.6594 59.8062 63.9929C59.8062 64.1597 59.973 64.3264 60.3064 64.66C60.6398 64.8268 60.9734 64.9934 61.6403 65.1602V62.9925H61.4736ZM63.4745 69.4954C64.1415 69.4954 64.6418 69.3286 65.142 68.9952C65.4754 68.8284 65.809 68.4949 65.809 68.1615C65.809 67.8281 65.6422 67.6613 65.3088 67.4945C64.9753 67.3277 64.4751 67.1611 63.6413 66.9943V69.4954H63.4745Z" fill="#FFD15C"/>
<path d="M79.815 65.1599C79.815 69.6619 71.9783 73.1634 62.3073 73.1634C52.8031 73.3302 44.9663 69.6619 44.9663 65.1599V59.8242H79.9818V65.1599H79.815Z" fill="#F8B64C"/>
<path d="M62.4736 67.8279C72.1428 67.8279 79.9813 64.2446 79.9813 59.8243C79.9813 55.4041 72.1428 51.8208 62.4736 51.8208C52.8043 51.8208 44.9658 55.4041 44.9658 59.8243C44.9658 64.2446 52.8043 67.8279 62.4736 67.8279Z" fill="#FFD15C"/>
<path d="M62.4739 66.4939C70.3935 66.4939 76.8136 63.5078 76.8136 59.8242C76.8136 56.1407 70.3935 53.1545 62.4739 53.1545C54.5544 53.1545 48.1343 56.1407 48.1343 59.8242C48.1343 63.5078 54.5544 66.4939 62.4739 66.4939Z" fill="#F8B64C"/>
<path d="M61.4736 62.6589V60.1578C59.8062 59.991 58.4723 59.6576 57.6386 59.1574C56.805 58.6571 56.4714 58.1569 56.4714 57.4899C56.4714 56.8229 56.9716 56.3227 57.8053 55.8224C58.6389 55.3222 59.973 55.1554 61.4736 54.9888V54.3218H63.3077V54.9888C64.6416 54.9888 65.8088 55.3222 66.6425 55.6558C67.4761 55.9892 67.9764 56.4895 68.1432 57.1565L64.8084 57.3233C64.6416 56.823 64.1414 56.4896 63.3077 56.3228V58.6571C65.4754 58.9906 66.8093 59.3242 67.6429 59.6576C68.4766 59.991 68.8102 60.658 68.8102 61.325C68.8102 61.9921 68.3099 62.6589 67.3095 63.1591C66.3091 63.6594 64.9752 63.9928 63.3077 64.1596V65.3268H61.4736V64.1596C59.973 63.9928 58.8057 63.8261 57.8053 63.3259C56.8048 62.8257 56.3046 62.3255 55.9712 61.4918L59.4727 61.325C59.6395 61.6585 59.8062 61.9921 60.3064 62.1587C60.64 62.3255 60.9734 62.4923 61.4736 62.6589ZM61.4736 56.3228C60.9734 56.3228 60.4732 56.4896 60.3064 56.6562C59.973 56.823 59.8062 56.9897 59.8062 57.3233C59.8062 57.4901 59.973 57.6567 60.3064 57.9903C60.6398 58.1571 60.9734 58.3237 61.6403 58.4905V56.3228H61.4736ZM63.4745 62.6589C64.1415 62.6589 64.6418 62.4921 65.142 62.1587C65.4754 61.9919 65.809 61.6585 65.809 61.325C65.809 60.9916 65.6422 60.8248 65.3088 60.658C64.9753 60.4912 64.4751 60.3246 63.6413 60.1578V62.6589H63.4745Z" fill="#FFD15C"/>
<path d="M79.8148 58.4904C79.8148 62.9924 71.9781 66.494 62.3071 66.494C52.6361 66.494 44.7993 62.8256 44.7993 58.4904V53.1548H79.8148V58.4904Z" fill="#F8B64C"/>
<path d="M62.4736 60.9917C72.1428 60.9917 79.9813 57.4084 79.9813 52.9882C79.9813 48.5679 72.1428 44.9846 62.4736 44.9846C52.8043 44.9846 44.9658 48.5679 44.9658 52.9882C44.9658 57.4084 52.8043 60.9917 62.4736 60.9917Z" fill="#FFD15C"/>
<path d="M62.4739 59.6577C70.3935 59.6577 76.8136 56.6716 76.8136 52.988C76.8136 49.3045 70.3935 46.3184 62.4739 46.3184C54.5544 46.3184 48.1343 49.3045 48.1343 52.988C48.1343 56.6716 54.5544 59.6577 62.4739 59.6577Z" fill="#F8B64C"/>
<path d="M61.4736 55.9893V53.3214C59.8062 53.1546 58.4723 52.8212 57.6386 52.3209C56.805 51.8207 56.4714 51.3205 56.4714 50.6535C56.4714 49.9865 56.9716 49.4862 57.8053 48.986C58.6389 48.4858 59.973 48.319 61.4736 48.1524V47.4854H63.3077V48.319C64.6416 48.319 65.8088 48.6524 66.6425 48.986C67.4761 49.3194 67.9764 49.8197 68.1432 50.4867L64.8084 50.6535C64.6416 50.1533 64.1414 49.8198 63.3077 49.653V51.9873C65.4754 52.3208 66.8093 52.6544 67.6429 52.9878C68.4766 53.3212 68.8102 53.9882 68.8102 54.6553C68.8102 55.3223 68.3099 55.9891 67.3095 56.4894C66.3091 56.9896 64.9752 57.323 63.3077 57.4898V58.657H61.4736V57.4898C59.973 57.323 58.8057 57.1564 57.8053 56.6561C56.8048 56.1559 56.3046 55.6557 55.9712 54.822L59.4727 54.6553C59.6395 54.9887 59.8062 55.3223 60.3064 55.4889C60.64 55.6559 60.9734 55.8225 61.4736 55.9893ZM61.4736 49.4864C60.9734 49.4864 60.4732 49.6532 60.3064 49.8198C59.973 49.9866 59.8062 50.1533 59.8062 50.4868C59.8062 50.6536 59.973 50.8203 60.3064 51.1539C60.6398 51.3206 60.9734 51.4873 61.6403 51.6541V49.4864H61.4736ZM63.4745 55.9893C64.1415 55.9893 64.6418 55.8225 65.142 55.4891C65.4754 55.3223 65.809 54.9888 65.809 54.6554C65.809 54.322 65.6422 54.1552 65.3088 53.9884C64.9753 53.8216 64.4751 53.655 63.6413 53.4882V55.9893H63.4745Z" fill="#FFD15C"/>
<path d="M79.815 51.654C79.815 56.156 71.9783 59.6576 62.3073 59.6576C52.8031 59.8243 44.9663 56.156 44.9663 51.654V46.3184H79.9818V51.654H79.815Z" fill="#F8B64C"/>
<path d="M62.4736 54.3221C72.1428 54.3221 79.9813 50.7387 79.9813 46.3185C79.9813 41.8983 72.1428 38.3149 62.4736 38.3149C52.8043 38.3149 44.9658 41.8983 44.9658 46.3185C44.9658 50.7387 52.8043 54.3221 62.4736 54.3221Z" fill="#FFD15C"/>
<path d="M62.4739 52.9883C70.3935 52.9883 76.8136 50.0022 76.8136 46.3186C76.8136 42.635 70.3935 39.6489 62.4739 39.6489C54.5544 39.6489 48.1343 42.635 48.1343 46.3186C48.1343 50.0022 54.5544 52.9883 62.4739 52.9883Z" fill="#F8B64C"/>
<path d="M61.4736 49.1528V46.6517C59.8062 46.4849 58.4723 46.1515 57.6386 45.6513C56.805 45.151 56.4714 44.6508 56.4714 43.9838C56.4714 43.3168 56.9716 42.8166 57.8053 42.3163C58.6389 41.8161 59.973 41.6493 61.4736 41.4827V40.8157H63.3077V41.4827C64.6416 41.4827 65.8088 41.8161 66.6425 42.1497C67.4761 42.4831 67.9764 42.9834 68.1432 43.6504L64.8084 43.8172C64.6416 43.3169 64.1414 42.9835 63.3077 42.8167V45.151C65.4754 45.4845 66.8093 45.818 67.6429 46.1515C68.4766 46.4849 68.8102 47.1519 68.8102 47.8189C68.8102 48.4859 68.3099 49.1528 67.3095 49.653C66.3091 50.1533 64.9752 50.4867 63.3077 50.6535V51.6539H61.4736V50.4867C59.973 50.3199 58.8057 50.1533 57.8053 49.653C56.8048 49.1528 56.3046 48.6526 55.9712 47.8189L59.4727 47.6521C59.6395 47.9856 59.8062 48.3192 60.3064 48.4858C60.64 48.8194 60.9734 48.9862 61.4736 49.1528ZM61.4736 42.8167C60.9734 42.8167 60.4732 42.9835 60.3064 43.1501C59.973 43.3169 59.8062 43.4836 59.8062 43.8172C59.8062 43.984 59.973 44.1506 60.3064 44.4842C60.6398 44.651 60.9734 44.8176 61.6403 44.9844V42.8167H61.4736ZM63.4745 49.3196C64.1415 49.3196 64.6418 49.1528 65.142 48.8194C65.4754 48.6526 65.809 48.3192 65.809 47.9857C65.809 47.6523 65.6422 47.4855 65.3088 47.3187C64.9753 47.1519 64.4751 46.9853 63.6413 46.8185V49.3196H63.4745Z" fill="#FFD15C"/>
<path d="M79.815 44.9846C79.815 49.4866 71.9783 52.9881 62.3073 52.9881C52.8031 52.9881 44.9663 49.4866 44.9663 44.9846V39.6489H79.9818V44.9846H79.815Z" fill="#F8B64C"/>
<path d="M62.4736 47.6524C72.1428 47.6524 79.9813 44.0691 79.9813 39.6488C79.9813 35.2286 72.1428 31.6453 62.4736 31.6453C52.8043 31.6453 44.9658 35.2286 44.9658 39.6488C44.9658 44.0691 52.8043 47.6524 62.4736 47.6524Z" fill="#FFD15C"/>
<path d="M62.4739 46.3183C70.3935 46.3183 76.8136 43.3322 76.8136 39.6487C76.8136 35.9651 70.3935 32.979 62.4739 32.979C54.5544 32.979 48.1343 35.9651 48.1343 39.6487C48.1343 43.3322 54.5544 46.3183 62.4739 46.3183Z" fill="#F8B64C"/>
<path d="M61.4736 42.4834V39.9823C59.8062 39.8155 58.4723 39.482 57.6386 38.9818C56.805 38.4816 56.4714 37.9814 56.4714 37.3144C56.4714 36.6473 56.9716 36.1471 57.8053 35.6469C58.6389 35.1467 59.973 34.9799 61.4736 34.8133V34.1462H63.3077V34.8133C64.6416 34.8133 65.8088 35.1467 66.6425 35.4803C67.4761 35.8137 67.9764 36.3139 68.1432 36.9809L64.8084 37.1477C64.6416 36.6475 64.1414 36.3141 63.3077 36.1473V38.4816C65.4754 38.815 66.8093 39.1486 67.6429 39.482C68.4766 39.8155 68.8102 40.4825 68.8102 41.1495C68.8102 41.8165 68.3099 42.4834 67.3095 42.9836C66.3091 43.4838 64.9752 43.8172 63.3077 43.984V44.9845H61.4736V43.8172C59.973 43.6505 58.8057 43.4838 57.8053 42.9836C56.8048 42.4834 56.3046 41.9831 55.9712 41.1495L59.4727 40.9827C59.6395 41.3161 59.8062 41.6497 60.3064 41.8164C60.64 42.1498 60.9734 42.3166 61.4736 42.4834ZM61.4736 36.1473C60.9734 36.1473 60.4732 36.3141 60.3064 36.4807C59.973 36.6475 59.8062 36.8141 59.8062 37.1477C59.8062 37.3145 59.973 37.4812 60.3064 37.8147C60.6398 37.9815 60.9734 38.1482 61.6403 38.315V36.1473H61.4736ZM63.4745 42.4834C64.1415 42.4834 64.6418 42.3166 65.142 41.9832C65.4754 41.8164 65.809 41.4829 65.809 41.1495C65.809 40.8161 65.6422 40.6493 65.3088 40.4825C64.9753 40.3157 64.4751 40.1491 63.6413 39.9823V42.4834H63.4745Z" fill="#FFD15C"/>
</g>
<defs>
<clipPath id="clip0">
<rect width="80" height="80" fill="white"/>
</clipPath>
</defs>
</svg>
