<svg width="64" height="64" viewBox="0 0 64 64" fill="none" xmlns="http://www.w3.org/2000/svg">
<path d="M61.3171 0H2.67034C1.19661 0 0 1.19661 0 2.67034V61.3297C0 62.8034 1.19661 64 2.67034 64H61.3297C62.8034 64 64 62.8034 64 61.3297V2.67034C63.9874 1.19661 62.7908 0 61.3171 0Z" fill="#F2F2F2"/>
<path d="M55.9891 15.9969H7.99854V55.989H55.9891V15.9969Z" fill="white"/>
<path d="M10.1273 10.1271C11.3029 10.1271 12.256 9.17406 12.256 7.9984C12.256 6.82275 11.3029 5.86969 10.1273 5.86969C8.95159 5.86969 7.99854 6.82275 7.99854 7.9984C7.99854 9.17406 8.95159 10.1271 10.1273 10.1271Z" fill="#FFD15C"/>
<path d="M15.7073 10.1271C16.883 10.1271 17.836 9.17406 17.836 7.9984C17.836 6.82275 16.883 5.86969 15.7073 5.86969C14.5317 5.86969 13.5786 6.82275 13.5786 7.9984C13.5786 9.17406 14.5317 10.1271 15.7073 10.1271Z" fill="#84DBFF"/>
<path d="M21.2869 10.1271C22.4626 10.1271 23.4156 9.17406 23.4156 7.9984C23.4156 6.82275 22.4626 5.86969 21.2869 5.86969C20.1113 5.86969 19.1582 6.82275 19.1582 7.9984C19.1582 9.17406 20.1113 10.1271 21.2869 10.1271Z" fill="white"/>
<path d="M53.8599 5.86969H34.1473C32.9758 5.86969 32.0186 6.82698 32.0186 7.9984C32.0186 9.16983 32.9758 10.1271 34.1473 10.1271H53.8599C55.0313 10.1271 55.9886 9.16983 55.9886 7.9984C55.9886 6.82698 55.0313 5.86969 53.8599 5.86969Z" fill="white"/>
<path d="M32.7875 43.0781L42.373 39.0474L34.9792 46.3531C34.8784 47.1844 34.425 47.9779 33.6692 48.4818C32.2837 49.4013 30.4069 49.036 29.4874 47.6505C28.5679 46.2649 28.9331 44.3881 30.3187 43.4686C31.0744 42.9648 31.9814 42.8514 32.7875 43.0781Z" fill="#334A5E"/>
<path d="M31.9939 47.7386C32.9678 47.7386 33.7573 46.9491 33.7573 45.9752C33.7573 45.0013 32.9678 44.2118 31.9939 44.2118C31.02 44.2118 30.2305 45.0013 30.2305 45.9752C30.2305 46.9491 31.02 47.7386 31.9939 47.7386Z" fill="white"/>
<path d="M43.7832 42.461H51.4542C51.4542 37.0825 49.2751 32.2204 45.7482 28.6936L40.3193 34.1224C42.4606 36.2637 43.7832 39.1986 43.7832 42.461Z" fill="#F1543F"/>
<path d="M40.3322 34.1224L45.761 28.6936C42.2342 25.1667 37.3721 22.9876 31.9937 22.9876V30.6585C35.2434 30.6711 38.1909 31.9937 40.3322 34.1224Z" fill="#FF7058"/>
<path d="M31.9939 30.6711V23.0002C26.6155 23.0002 21.7534 25.1793 18.2266 28.7061L23.6554 34.135C25.7967 31.9937 28.7442 30.6711 31.9939 30.6711Z" fill="#F8B64C"/>
<path d="M23.6553 34.1224L18.2265 28.6936C14.6996 32.2204 12.5205 37.0825 12.5205 42.461H20.1914C20.204 39.1986 21.5266 36.2637 23.6553 34.1224Z" fill="#FFD15C"/>
</svg>
