<svg width="48" height="48" viewBox="0 0 48 48" fill="none" xmlns="http://www.w3.org/2000/svg">
<path d="M41.4955 22.9219C41.139 21.1859 40.298 17.3842 39.0492 13.5313C38.0527 10.4562 36.9975 7.98337 35.9131 6.18159C34.2869 3.47944 32.4551 2.10938 30.4688 2.10938C28.8725 2.10938 26.9027 3.06469 24.4521 5.02725C23.0563 3.93506 20.3204 2.10938 17.625 2.10938C14.299 2.10938 11.5582 5.75203 8.99916 13.5732C7.75266 17.3829 6.9015 21.1425 6.52753 22.9219H0V26.6719H48V22.9219H41.4955ZM10.3647 22.9219C10.7809 21.0323 11.5377 17.8737 12.5633 14.7393C14.8614 7.71525 16.8792 5.85938 17.625 5.85938C18.8012 5.85938 20.3801 6.71044 21.5992 7.57538C21.3866 7.78538 21.2603 7.91597 21.2441 7.93284L19.9426 9.28256L22.6419 11.8856L23.9435 10.5359C23.9554 10.5236 25.1472 9.29156 26.6582 8.06522C29.2998 5.92125 30.3569 5.85938 30.4688 5.85938C31.2114 5.85938 33.2129 7.69809 35.4721 14.6572C36.503 17.8326 37.2571 21.0455 37.6617 22.9219H10.3647Z" fill="#0084E9"/>
<path d="M33.6562 29.3906C30.788 29.3906 28.2574 30.8623 26.7786 33.0898L23.6353 31.5182L20.3155 33.1376C18.8413 30.8833 16.295 29.3906 13.4062 29.3906C8.85722 29.3906 5.15625 33.0916 5.15625 37.6406C5.15625 42.1897 8.85722 45.8906 13.4062 45.8906C17.9553 45.8906 21.6562 42.1897 21.6562 37.6406C21.6562 37.3168 21.6368 36.9974 21.6004 36.6832L23.6147 35.7006L25.4684 36.6275C25.4275 36.9596 25.4062 37.2977 25.4062 37.6406C25.4062 42.1897 29.1071 45.8906 33.6562 45.8906C38.2052 45.8906 41.9062 42.1897 41.9062 37.6406C41.9062 33.0916 38.2053 29.3906 33.6562 29.3906ZM13.4062 42.1406C10.925 42.1406 8.90625 40.1219 8.90625 37.6406C8.90625 35.1593 10.925 33.1406 13.4062 33.1406C15.8875 33.1406 17.9062 35.1593 17.9062 37.6406C17.9062 40.1219 15.8875 42.1406 13.4062 42.1406ZM33.6562 42.1406C31.175 42.1406 29.1562 40.1219 29.1562 37.6406C29.1562 35.1593 31.175 33.1406 33.6562 33.1406C36.1375 33.1406 38.1562 35.1593 38.1562 37.6406C38.1562 40.1219 36.1375 42.1406 33.6562 42.1406Z" fill="#0084E9"/>
</svg>
