<svg width="64" height="64" viewBox="0 0 64 64" fill="none" xmlns="http://www.w3.org/2000/svg">
<path d="M61.3795 9.18427H2.62047C1.17165 9.18427 0 10.3559 0 11.8047V47.8488H64V11.8047C64 10.3559 62.8283 9.18427 61.3795 9.18427Z" fill="#40596B"/>
<path d="M0 47.8488V52.3339C0 53.7827 1.17165 54.9543 2.62047 54.9543H62.0346C63.1181 54.9543 63.9874 54.0724 63.9874 53.0016V47.8488H0Z" fill="#FAFAFA"/>
<path d="M32 52.8C32.7723 52.8 33.3984 52.1739 33.3984 51.4015C33.3984 50.6292 32.7723 50.0031 32 50.0031C31.2277 50.0031 30.6016 50.6292 30.6016 51.4015C30.6016 52.1739 31.2277 52.8 32 52.8Z" fill="#CDD6E0"/>
<path d="M44.6612 60.1826H19.3384L21.7699 56.7936L22.7148 54.9669H41.2848L42.2297 56.7936L44.6612 60.1826Z" fill="#CDD6E0"/>
<path d="M51.3763 63.8992H12.6235V60.5354C12.6235 60.3465 12.7747 60.1827 12.9763 60.1827H51.0235C51.2125 60.1827 51.3763 60.3339 51.3763 60.5354V63.8992Z" fill="#FAFAFA"/>
<path d="M60.0943 12.863H3.90527V45.0268H60.0943V12.863Z" fill="#84DBFF"/>
<path d="M42.2299 56.7937H21.77L22.7149 54.9669H41.285L42.2299 56.7937Z" fill="#ACB3BA"/>
<path d="M24.9071 25.1717C24.9071 21.2535 28.0819 18.0787 32 18.0787C35.9181 18.0787 39.0929 21.2535 39.0929 25.1717C39.0929 25.8016 39.0047 26.4063 38.8535 26.9858C40.4283 25.3102 41.3984 23.0551 41.3984 20.5732C41.3984 15.3827 37.1905 11.1748 32 11.1748C26.8094 11.1748 22.6016 15.3827 22.6016 20.5732C22.6016 23.0551 23.5716 25.3102 25.1464 26.9858C24.9953 26.4063 24.9071 25.8016 24.9071 25.1717Z" fill="#F1543F"/>
<path d="M53.4929 45.0142C54.6519 43.6535 55.3574 41.9023 55.3574 39.9748C55.3574 35.6787 51.8677 32.189 47.5716 32.189C46.337 32.189 45.1653 32.4913 44.1196 33.0079C42.696 31.1433 40.4535 29.9338 37.9338 29.9338C35.6535 29.9338 33.6126 30.9165 32.1889 32.4787C31.5338 32.3023 30.8535 32.2016 30.148 32.2016C29.8204 32.2016 29.4929 32.2267 29.1653 32.2645C27.7417 30.6519 25.663 29.6315 23.3322 29.6315C19.6787 29.6315 16.6299 32.1512 15.7858 35.5401C11.7795 35.8677 8.62988 39.2063 8.62988 43.2882C8.62988 43.8803 8.70547 44.4598 8.83146 45.0268H53.4929V45.0142Z" fill="white"/>
<path d="M34.9605 24.3402H29.0393C25.1715 18.9354 24.6424 11.8677 27.4897 6.02206C28.3337 4.25828 29.4928 2.60789 30.9542 1.14647L32.0125 0.1008L33.0582 1.14647C34.5196 2.60789 35.6786 4.25828 36.5227 6.02206C39.3448 11.8677 38.8282 18.9354 34.9605 24.3402Z" fill="#FF7058"/>
<path d="M37.5561 35.389H26.4443L29.0774 24.3401H34.9231L37.5561 35.389Z" fill="white"/>
<path d="M36.5103 6.02206H27.5024C28.3465 4.25828 29.5056 2.60789 30.967 1.14647L32.0253 0.1008L33.071 1.14647C34.5072 2.59529 35.6662 4.25828 36.5103 6.02206Z" fill="#40596B"/>
<path d="M32.0002 17.978C33.8788 17.978 35.4018 16.455 35.4018 14.5764C35.4018 12.6977 33.8788 11.1748 32.0002 11.1748C30.1216 11.1748 28.5986 12.6977 28.5986 14.5764C28.5986 16.455 30.1216 17.978 32.0002 17.978Z" fill="#FFD15C"/>
</svg>
