<svg width="80" height="80" viewBox="0 0 80 80" fill="none" xmlns="http://www.w3.org/2000/svg">
<g clip-path="url(#clip0)">
<path d="M49.3156 14.0883C49.5446 12.5404 48.992 11.1764 48.0816 11.0418C47.1711 10.9071 46.2474 12.0528 46.0185 13.6006C45.7896 15.1485 46.3421 16.5125 47.2526 16.6471C48.163 16.7818 49.0867 15.6362 49.3156 14.0883Z" fill="#FFD15C"/>
<path d="M30.819 14.1106C31.048 15.6585 31.9716 16.8041 32.8821 16.6695C33.7926 16.5348 34.3451 15.1709 34.1162 13.623C33.8872 12.0751 32.9636 10.9295 32.0531 11.0641C31.1426 11.1988 30.5901 12.5628 30.819 14.1106Z" fill="#FFD15C"/>
<path d="M48.5 9C48.5 14 46.1667 20.5 40 20.5C33.6667 20.5 31.5 14 31.5 9C31.5 4 35.3333 0 40 0C44.6667 0 48.5 4 48.5 9Z" fill="#344A5E"/>
<path d="M60.333 38.1667L59.6664 32.5C59.3332 30 57.6664 28 55.3332 27.1667L47.9997 25L39.9997 28.5L31.9997 25L24.833 27.3333C22.4997 28.1666 20.6663 30.1666 20.4997 32.6666L19.833 38.3333H60.333V38.1667Z" fill="#E8EAE9"/>
<path d="M35.3336 38.1667H44.5003L45.5003 29.1667C45.5003 29.1667 45.667 27.5 45.667 26L40.0003 28.5L34.167 26C34.3337 27.6667 34.3337 29.1667 34.3337 29.1667L35.3336 38.1667Z" fill="#E8EAE9"/>
<path d="M36.8336 38.1668H43.1668L41.8335 33.1668L43.3335 31.6668C43.3335 31.6668 41.1668 28.3335 40.0003 28.3335C38.8337 28.3335 36.667 31.6668 36.667 31.6668L38.167 33.1668L36.8336 38.1668Z" fill="#F3705A"/>
<path d="M34.6665 21.3333C35.8332 24.3333 37.6665 26.6665 39.9998 28.5C38.3331 29.6667 36.9998 31 36.1665 32.3333L33.1665 23.3333C33.6665 22.6667 34.4998 21.5 34.6665 21.3333Z" fill="#F3F3F3"/>
<path d="M31.3333 38.1667H35.5001L34.5001 29.1667C34.5001 29.1667 34.1668 24.3334 34.1668 23.1667C34.1668 21.8334 34.8335 21.3334 34.8335 21.3334C34.1668 21.1667 30.0002 28.3334 30.0002 28.3334L32.5002 29.1667L29.8335 30.5L31.3333 38.1667Z" fill="#F3F3F3"/>
<path d="M45.3333 21.3333C44.1666 24.3333 42.3333 26.6665 40 28.5C41.6667 29.6667 43 31 43.8333 32.3333L46.8333 23.3333C46.3333 22.6667 45.5 21.5 45.3333 21.3333Z" fill="#F3F3F3"/>
<path d="M45.5 29.1667L44.5 38.1667H48.6667L50.3334 30.5L47.6667 29.1667L50.1667 28.3334C50.1667 28.3334 46.1667 21.1667 45.3334 21.3334C45.3334 21.3334 46.0002 21.8334 46.0002 23.1667C46 24.5 45.5 29.1667 45.5 29.1667Z" fill="#F3F3F3"/>
<path d="M34.667 15.3333V21.5C35.8337 24.5 37.667 26.8333 40.0003 28.6667C42.3336 26.8334 44.167 24.5 45.3336 21.5V15.3333H34.667Z" fill="#F7B64C"/>
<path d="M47.3331 13.1668C47.6664 18.8335 44.3331 23.6668 39.9998 23.6668C35.6666 23.6668 32.3331 18.8335 32.6666 13.1668C32.8333 11.3335 33.1666 9.66681 33.8333 8.33353C34.3333 8.66681 35.5 8.83353 37.6666 7.00024C40.8333 10.8335 44.8333 8.50024 47.1666 11.667C47.3331 12.1668 47.3331 12.6668 47.3331 13.1668Z" fill="#FFD15C"/>
<path d="M39.1667 80L38.3334 74.6668C37.8334 71.8335 35.6667 69.5 32.8334 69C24.0002 67.3333 14.8334 67.3333 6.16672 69C3.33344 69.5 1.16672 71.8333 0.666719 74.6668L0 80H39.1667Z" fill="#4ABAA5"/>
<path d="M21.8333 80L24.6667 66.8333H14.5L17.3333 80H21.8333Z" fill="#CED6E0"/>
<path d="M22.6667 79.9999H16.5L18.1667 74.8333H21L22.6667 79.9999Z" fill="#415A6B"/>
<path d="M21 74.8333L22.6667 73.1667L19.6667 70.1667L16.5 73.1667L18.1667 74.8333H21Z" fill="#415A6B"/>
<path d="M19.6667 70.1667L24.1667 65.8333V61.6667H15V65.8333L19.6667 70.1667Z" fill="#F7B64C"/>
<path d="M29.8335 56.8332C29.5002 58.3332 28.3335 59.3332 27.3335 59.1665C26.3335 58.8332 25.8335 57.4997 26.1668 55.9997C26.5001 54.4997 27.6668 53.6665 28.6668 53.833C29.6669 53.9999 30.1669 55.4999 29.8335 56.8332Z" fill="#FFD15C"/>
<path d="M9.33324 56.8332C9.66652 58.3332 10.8332 59.3332 11.8332 59.1665C12.8332 58.8332 13.3332 57.4997 13 55.9997C12.6667 54.4997 11.5 53.6665 10.5 53.833C9.66667 53.9999 8.99996 55.4999 9.33324 56.8332Z" fill="#FFD15C"/>
<path d="M11.3332 58.5C10.1665 55.8333 10.1665 53.1667 10.1665 51C10.3332 44.1667 14.3332 40 19.8332 40C25.3332 40 29.3332 44 29.1665 50.8333C29.1665 53.3333 28.9998 55.6666 27.6665 58.3333L11.3332 58.5Z" fill="#344A5E"/>
<path d="M25.3336 68.1667L23.0003 74.1667L19.667 70.1667L24.167 65.8333L25.3336 68.1667Z" fill="#F3F3F3"/>
<path d="M13.8335 68.1667L16.3335 74.1667L19.6669 70.1667L15.0002 65.8333L13.8335 68.1667Z" fill="#F3F3F3"/>
<path d="M25.1669 80L28.3335 74.1667L26.0002 72.5L28.6669 70.8333L24.6669 66.8333L21.8335 80H25.1669Z" fill="#66C6B9"/>
<path d="M10.8333 74.1667L14 80H17.3333L14.5 66.8333L10.5 70.8333L13.1667 72.5L10.8333 74.1667Z" fill="#66C6B9"/>
<path d="M20.833 46.1667C18.4997 48.6667 15.4997 50.5 11.4997 51.1667C11.1664 52.3335 10.833 53.6667 10.833 55C10.833 60.8333 14.833 65.6667 19.6663 65.6667C24.4996 65.6667 28.4997 60.8333 28.4997 55C28.4997 53.6667 28.333 52.3333 27.833 51.1667C24.833 50.3333 22.4997 48.5 20.833 46.1667Z" fill="#FFD15C"/>
<path d="M79.9997 80L79.1664 72.5C78.6664 69.6667 76.4997 67.3333 73.6664 66.8333C64.8332 65.1666 55.6664 65.1666 46.9997 66.8333C44.1664 67.3333 41.9997 69.6666 41.4997 72.5L40.833 80H79.9997Z" fill="#F05540"/>
<path d="M62.6664 80L65.4997 64.5H55.333L58.1664 80H62.6664Z" fill="#CED6E0"/>
<path d="M63.4997 80.0001H57.333L58.9997 72.6667H61.833L63.4997 80.0001Z" fill="#415A6B"/>
<path d="M61.833 72.6667L63.4997 71L60.333 67.8333L57.333 71L58.9997 72.6667H61.833Z" fill="#415A6B"/>
<path d="M60.333 67.8333L64.9997 63.6667V59.3333H55.833V63.6667L60.333 67.8333Z" fill="#F7B64C"/>
<path d="M66.1669 65.8333L63.6669 71.8333L60.3335 67.8333L65.0002 63.6667L66.1669 65.8333Z" fill="#F3F3F3"/>
<path d="M54.667 65.8333L57.0003 71.8333L60.3336 67.8333L55.8336 63.6667L54.667 65.8333Z" fill="#F3F3F3"/>
<path d="M66.0003 80L69.167 71.8333L66.8336 70.3333L69.5003 68.6667L65.5003 64.5L62.667 80H66.0003Z" fill="#F3705A"/>
<path d="M51.6669 71.8333L54.8335 80H58.1669L55.3335 64.5L51.3335 68.6667L54.0002 70.3333L51.6669 71.8333Z" fill="#F3705A"/>
<path d="M70.667 54.6667C70.3337 56.1667 69.167 57.1667 68.167 57C67.167 56.6667 66.667 55.3332 67.0003 53.8332C67.3336 52.3332 68.5003 51.5 69.5003 51.6665C70.3335 51.8332 71.0003 53.1667 70.667 54.6667Z" fill="#FFD15C"/>
<path d="M50.1669 54.6667C50.5001 56.1667 51.6669 57.1667 52.6668 57C53.6668 56.6667 54.1668 55.3332 53.8336 53.8332C53.5003 52.3332 52.3336 51.5 51.3336 51.6665C50.3334 51.8332 49.8334 53.1667 50.1669 54.6667Z" fill="#FFD15C"/>
<path d="M52.5 57C51.3333 54.6667 51 52.1667 51 50C51.1667 43.8332 55.1667 40 60.6667 39.8333C66.1667 39.8333 70.1667 43.5 70 49.6665C70 51.9998 69.8333 54.1665 68.5 56.6665L52.5 57Z" fill="#344A5E"/>
<path d="M60.5002 48.3332C58.0002 48.3332 55.8335 47.8332 54.0002 47.1665C52.6669 48.9998 51.8335 51.4998 51.8335 54.3332C51.8335 60.3332 55.6668 65.1665 60.3335 65.1665C65.0002 65.1665 68.8335 60.3332 68.8335 54.3332C68.8335 51.6665 68.0002 49.1665 66.6668 47.1665C65.1669 47.8332 63.0002 48.3332 60.5002 48.3332Z" fill="#FFD15C"/>
<path d="M47 58.9999L41.6667 53.8332V46.3332C41.6667 45.3332 41 44.6665 40 44.6665C39 44.6665 38.3333 45.3332 38.3333 46.3332V53.8332L33 59.1667C32.3333 59.8334 32.3333 60.8334 33 61.4999C33.6668 62.1667 34.6668 62.1667 35.3333 61.4999L39.8333 56.9999L44.3333 61.4999C45 62.1667 46 62.1667 46.6666 61.4999C47.5 60.8332 47.5 59.6667 47 58.9999Z" fill="#344A5E"/>
</g>
<defs>
<clipPath id="clip0">
<rect width="80" height="80" fill="white"/>
</clipPath>
</defs>
</svg>
