<svg width="48" height="48" viewBox="0 0 48 48" fill="none" xmlns="http://www.w3.org/2000/svg">
<g clip-path="url(#clip0)">
<path d="M46.4407 24.0326L46.3876 23.9795L34.6231 13.9622L34.6125 10.8534L27.6043 10.8776L23.0369 15.4446C22.321 16.1606 21.1458 16.1723 20.417 15.4706C20.0677 15.1341 19.8721 14.6704 19.8673 14.1647C19.8622 13.6337 20.0721 13.1166 20.4427 12.746L24.167 8.7726C27.1623 5.57594 31.3931 3.74232 35.7741 3.74232H47.9986V-0.000366002H35.7741C31.4122 -0.000366002 27.1714 1.47217 23.7525 4.11073C20.298 1.38941 16.0448 -0.09375 11.6063 -0.09375H0.09375V3.64893H11.6063C15.0044 3.64893 18.2685 4.7223 20.9784 6.70241L17.7726 10.1236C16.7106 11.1988 16.1104 12.6826 16.125 14.2006C16.1397 15.7193 16.7421 17.1281 17.8217 18.1674C18.8859 19.1917 20.2903 19.748 21.7643 19.7351C23.2445 19.722 24.6365 19.1382 25.6831 18.0912L29.1596 14.6148L29.6148 14.6129L43.8362 26.7225C44.4141 27.3454 44.3998 28.3224 43.7941 28.9285C43.4964 29.2263 43.0972 29.39 42.6695 29.39C42.2418 29.39 41.8426 29.2263 41.5449 28.9285L41.1607 28.5444L38.5145 31.1906L38.8983 31.5748C39.0781 31.7542 39.2674 31.9183 39.4648 32.067L39.4274 32.1039C40.0478 32.7243 40.0478 33.7332 39.4274 34.3536C38.8074 34.9736 37.7982 34.9736 37.1782 34.3536L36.5431 33.7233L33.8969 36.3696L34.3272 36.7999C34.6495 37.1236 34.8439 37.5839 34.8604 38.0637C34.8692 38.3255 34.8293 38.8199 34.4587 39.1898C33.8731 39.7757 32.8591 39.7149 32.1991 39.055L32.1468 39.0023L31.8095 38.7148L29.272 41.4621C29.5844 41.7741 29.7591 42.1828 29.7638 42.6128C29.7686 43.0288 29.6111 43.4181 29.3207 43.7085C28.7004 44.3288 27.6786 44.3164 27.0385 43.6759L26.7723 43.4118C27.5369 41.4632 27.1337 39.1586 25.5616 37.5861C24.8577 36.8823 24 36.3897 23.0706 36.1425C23.3013 34.5349 22.7996 32.8415 21.5655 31.6074C20.6408 30.6827 19.4579 30.1703 18.2469 30.0682C18.1553 28.8641 17.6408 27.6827 16.7003 26.7422C15.7702 25.8121 14.5789 25.2994 13.3601 25.2012C13.2623 23.9825 12.7497 22.7912 11.8195 21.861C9.74415 19.7864 6.37062 19.7817 4.2898 21.8482L1.67505 24.3729L1.65161 24.3959C0.647096 25.4004 0.09375 26.7397 0.09375 28.1668C0.09375 29.5943 0.647096 30.9335 1.65161 31.9381C2.44666 32.7331 3.4325 33.2231 4.46302 33.4102C4.41468 34.8359 4.93214 36.2773 6.01832 37.3631C6.98658 38.3317 8.27931 38.8613 9.66835 38.8613C9.69472 38.8613 9.72108 38.8609 9.74782 38.8605C9.89906 39.9727 10.3989 41.0439 11.2497 41.8946C12.2846 42.9295 13.6447 43.4463 15.0092 43.4459C15.1238 43.4459 15.2384 43.4411 15.3531 43.4338C15.5512 44.5229 16.0708 45.5245 16.8659 46.3195C17.9239 47.3775 19.3133 47.9063 20.703 47.9063C22.0602 47.906 23.4167 47.4002 24.4648 46.3913C25.5085 47.3999 26.8594 47.9063 28.2078 47.906C29.5719 47.906 30.9328 47.3896 31.9673 46.3547C32.795 45.5271 33.3117 44.4735 33.4615 43.3313C34.7934 43.3291 36.1092 42.8325 37.1053 41.836C37.9805 40.9611 38.4958 39.812 38.5888 38.5518C39.8577 38.4841 41.1069 37.967 42.074 36.9998C43.1599 35.914 43.6784 34.473 43.6304 33.0477C44.6606 32.8605 45.6461 32.3694 46.4407 31.5748C48.5201 29.4954 48.5201 26.112 46.4407 24.0326ZM3.83643 28.1668C3.83643 27.7438 3.99683 27.3487 4.28834 27.0517L6.90016 24.5307L6.92359 24.5076C7.22132 24.2095 7.62086 24.0458 8.04823 24.0458C8.47596 24.0458 8.8755 24.2095 9.17323 24.5076C9.4706 24.8053 9.63466 25.2045 9.63466 25.6323C9.63466 25.9875 9.52003 26.3229 9.31093 26.5972C9.26186 26.6423 9.21315 26.6877 9.16517 26.7349L7.24586 28.6169L6.57093 29.2687L6.54749 29.2918C6.24976 29.5895 5.85023 29.7536 5.42249 29.7536C4.99512 29.7536 4.59559 29.5895 4.29786 29.2918C4.00013 28.9941 3.83643 28.5945 3.83643 28.1668ZM8.66456 34.7169C8.04603 34.0983 8.04457 33.0931 8.65944 32.4727L9.85768 31.2975L11.796 29.4262L11.8195 29.4035C11.8696 29.3533 11.9173 29.3017 11.9652 29.2501C12.5882 28.774 13.4846 28.819 14.0541 29.3885C14.6701 30.0048 14.6737 30.8965 14.0636 31.5121L10.8703 34.6429C10.2155 35.2471 9.22926 35.2816 8.66456 34.7169ZM13.8959 39.2484C13.2766 38.6287 13.2884 37.6092 13.9215 36.9735L16.663 34.2606L16.6699 34.2536C16.9673 33.9559 17.3668 33.7922 17.7946 33.7922C18.222 33.7922 18.6215 33.9559 18.9192 34.2536C19.5385 34.8729 19.5392 35.88 18.9221 36.5003L16.1803 39.2136L16.1734 39.2202C15.538 39.8559 14.5163 39.8684 13.8959 39.2484ZM19.5121 43.6729C19.1895 43.3503 19.0093 42.9178 19.0045 42.4549C18.9998 42.0015 19.1668 41.5826 19.4748 41.275L20.5976 40.1522C20.8971 39.8523 21.286 39.7039 21.6837 39.7039C22.1184 39.7039 22.5641 39.8812 22.9153 40.2324C23.5719 40.889 23.5719 41.9576 22.9153 42.6142L21.8841 43.6828C21.2267 44.3296 20.1654 44.3263 19.5121 43.6729Z" fill="#C94390"/>
</g>
<defs>
<clipPath id="clip0">
<rect width="48" height="48" fill="white"/>
</clipPath>
</defs>
</svg>
