<svg width="32" height="32" viewBox="0 0 32 32" fill="none" xmlns="http://www.w3.org/2000/svg">
<path d="M29.5536 24.9837L24.2836 22.3487C23.6027 22.0082 23.1724 21.312 23.1724 20.5506V18.4827C23.3203 18.3144 23.4902 18.0976 23.6712 17.8416C24.3895 16.8275 24.9324 15.7114 25.3092 14.5401C25.9851 14.3321 26.4827 13.7075 26.4827 12.9655V10.7586C26.4827 10.2731 26.267 9.83886 25.931 9.53541V6.34479C25.931 6.34479 26.5859 1.37927 19.8621 1.37927C13.1376 1.37927 13.7931 6.34479 13.7931 6.34479V9.53541C13.4571 9.83886 13.2414 10.2731 13.2414 10.7586V12.9655C13.2414 13.547 13.547 14.0584 14.0044 14.3542C14.5556 16.7553 16 18.4827 16 18.4827V20.4993C16 21.2347 15.5983 21.9117 14.9523 22.2637L10.0303 24.9489C8.60854 25.7241 7.72412 27.2143 7.72412 28.8336V30.6207H32V28.9418C32 27.2656 31.0527 25.7335 29.5536 24.9837Z" fill="#C94390"/>
<path d="M10.0303 24.9489L13.3109 23.1597C13.2921 23.1415 13.3081 23.136 13.3468 23.1398L14.9523 22.2642C15.5983 21.9117 16 21.2353 16 20.4993V18.4827C16 18.4827 15.4141 17.7793 14.8458 16.6493C14.8458 16.6488 14.8452 16.6482 14.8452 16.6477C14.7708 16.4998 14.6974 16.3437 14.6251 16.182C14.6152 16.1594 14.6052 16.1379 14.5953 16.1153C14.5219 15.9481 14.4502 15.7754 14.3823 15.5944C14.3779 15.5828 14.3741 15.5702 14.3697 15.5586C14.3101 15.3986 14.2543 15.2336 14.2008 15.0642C14.1865 15.0179 14.1721 14.9721 14.1583 14.9257C14.1026 14.7393 14.0502 14.5495 14.005 14.3531C13.547 14.0584 13.2414 13.547 13.2414 12.9655V10.7586C13.2414 10.2731 13.4571 9.83885 13.7931 9.5354V6.41926C13.0135 5.81457 11.8052 5.24133 9.93103 5.24133C4.6549 5.24133 4.41379 9.65513 4.41379 9.65513V12.411C4.12359 12.6731 3.86207 13.0477 3.86207 13.467V15.3732C3.86207 15.8758 4.12635 16.3172 4.52083 16.5726C4.99697 18.646 6.59531 20.1384 6.59531 20.1384V21.8802C6.59531 22.5153 6.24828 23.1001 5.69048 23.4041L1.99172 25.7224C0.764138 26.3922 0 27.6789 0 29.0775V30.6206H7.72414V28.8336C7.72414 27.2143 8.60855 25.7241 10.0303 24.9489Z" fill="#FEDDDD"/>
</svg>
