<svg width="48" height="48" viewBox="0 0 48 48" fill="none" xmlns="http://www.w3.org/2000/svg">
<path d="M44.25 35.3448V8.53125H40.5V33.9375H7.5V8.53125H3.75V35.3448L0 44.3438V48H48V44.3438L44.25 35.3448ZM29.625 44.25V42.4688H18.375V44.25H4.10156L6.83643 37.6875H41.1636L43.8984 44.25H29.625ZM15.275 19.3993C14.9875 20.2108 14.703 20.7015 14.6719 20.7546L12.85 23.603L16.2664 23.6173H16.2916C17.7979 23.6173 19.8625 23.0647 21.5522 21.5724C22.4084 21.6823 23.2163 21.7361 23.9996 21.7361C27.6189 21.7361 30.7046 20.8857 32.9227 19.2777C35.5492 17.3738 36.9375 14.4595 36.9375 10.8505C36.9375 7.24109 35.5477 4.33191 32.9187 2.43713C30.7057 0.842651 27.6218 0 24 0C20.3782 0 17.2943 0.842651 15.0813 2.43713C12.4523 4.33191 11.0625 7.24109 11.0625 10.8505C11.0625 13.0569 11.5745 14.9956 12.5845 16.6128C13.2689 17.7089 14.1705 18.6416 15.275 19.3993ZM17.2738 5.47961C18.8445 4.34802 21.1703 3.75 24 3.75C26.8297 3.75 29.1555 4.34802 30.7262 5.47961C32.3822 6.6731 33.1875 8.42981 33.1875 10.8505C33.1875 13.2755 32.3811 15.0388 30.7218 16.2418C29.1478 17.3829 26.8235 17.9861 24 17.9861C23.1383 17.9861 22.2246 17.9022 21.2062 17.7297L20.1643 17.5532L19.4736 18.353C19.4553 18.3743 19.4366 18.3955 19.4183 18.416L19.6252 17.484L18.3029 16.8336C15.9543 15.6782 14.8125 13.7212 14.8125 10.8505C14.8125 8.42981 15.6178 6.6731 17.2738 5.47961Z" fill="#C94390"/>
</svg>
