<svg width="64" height="64" viewBox="0 0 64 64" fill="none" xmlns="http://www.w3.org/2000/svg">
<path d="M39.0669 20C44.5897 20 49.0669 15.5228 49.0669 10C49.0669 4.47715 44.5897 0 39.0669 0C33.544 0 29.0669 4.47715 29.0669 10C29.0669 15.5228 33.544 20 39.0669 20Z" fill="#F3705A"/>
<path d="M39.0668 17.6C43.2642 17.6 46.6668 14.1974 46.6668 9.99999C46.6668 5.80263 43.2642 2.39999 39.0668 2.39999C34.8694 2.39999 31.4668 5.80263 31.4668 9.99999C31.4668 14.1974 34.8694 17.6 39.0668 17.6Z" fill="white"/>
<path d="M42.2666 10.9334H39.0666C38.6666 10.9334 38.2666 10.5334 38.2666 10.1334V4.8C38.2666 4.4 38.6666 4 39.0666 4C39.4666 4 39.8666 4.4 39.8666 4.8V9.2H42.2666C42.6666 9.2 43.0666 9.6 43.0666 10C43.0666 10.5334 42.6666 10.9334 42.2666 10.9334Z" fill="#415A6B"/>
<path d="M54.2664 38.5334H46.7998V40.6668H54.2664V38.5334Z" fill="#415A6B"/>
<path d="M57.1999 43.4666C57.1999 41.8666 55.8666 40.6666 54.3999 40.6666H46.9333C45.3333 40.6666 44.1333 42 44.1333 43.4666H57.1999Z" fill="#415A6B"/>
<path d="M36.2666 43.0666H3.7334L4.66677 38.9332C5.06677 36.7999 6.5334 35.0666 8.5334 34.2666L13.8668 32.1332L20 34L26.1334 32.1334L31.4668 34.2667C33.4668 35.0667 34.9334 36.8001 35.3334 38.9334L36.2666 43.0666Z" fill="#55C0EB"/>
<path d="M23.6 43.0666L23.7334 32.9333L20 34.1333L16.2666 32.9333L16.4 43.0666H23.6Z" fill="#CED6E0"/>
<path d="M16.9331 43.0666H23.0664L21.0664 37.4666L22.1331 36.1334L19.9997 34.1334L17.8664 36.1334L18.9331 37.4666L16.9331 43.0666Z" fill="#F3705A"/>
<path d="M20 34C20 34 23.7334 31.6 24 29.6L25.4666 32L22.8 37.6L20 34Z" fill="#E8EAE9"/>
<path d="M24.5334 43.0666L28.4001 36.4L26.2667 35.3334L28.4001 34.2666L24.8001 30.8L21.8667 43.0666H24.5334Z" fill="#8AD7F8"/>
<path d="M19.9999 34C19.9999 34 16.2665 31.6 15.9999 29.6L14.6665 32L17.3331 37.6L19.9999 34Z" fill="#E8EAE9"/>
<path d="M11.6001 36.4L15.4667 43.0666H18.1335L15.2001 30.8L11.6001 34.2666L13.8667 35.3334L11.6001 36.4Z" fill="#8AD7F8"/>
<path d="M16 26.9334V29.4668C16.2666 31.6001 20 33.8668 20 33.8668C20 33.8668 23.7334 31.4668 24 29.4668V26.9334H16Z" fill="#F7B64C"/>
<path d="M19.9998 21.0666C19.9998 24.4 18.5331 27.0666 16.7998 27.0666C15.0664 27.0666 13.4664 24.4 13.3331 21.0666C13.1998 17.6 14.6665 14.5332 16.5331 14.5332C18.3998 14.5332 19.9998 17.6 19.9998 21.0666Z" fill="#415A6B"/>
<path d="M27.0662 20.4C26.9328 24.1334 24.1328 26.9333 20.9328 26.9333C17.7328 26.9333 15.0662 24 14.9328 20.4C14.7994 16.5334 17.5994 13.2 21.0662 13.2C24.5329 13.2 27.3329 16.5334 27.0662 20.4Z" fill="#415A6B"/>
<path d="M25.9997 20.6666C23.1997 20.4 20.3997 19.4666 18.1331 17.8666C17.0665 19.6 15.7331 21.0666 13.9997 21.8666C13.9997 22.4 13.8663 22.8 13.9997 23.3333C14.1331 27.7333 16.9331 31.0666 20.1331 31.0666C23.3331 31.0666 26.1331 27.7333 26.2665 23.3333C26.2663 22.4 26.1331 21.6 25.9997 20.6666Z" fill="#FFD15C"/>
<path d="M27.0666 24.1334C26.8 25.3334 25.8666 26.2668 25.2 26.1334C24.5334 26 24.2666 24.9334 24.5334 23.7334C24.8 22.5334 25.7334 21.6 26.4 21.7334C27.2 21.8666 27.4666 22.9334 27.0666 24.1334Z" fill="#FFD15C"/>
<path d="M12.9335 24.1334C13.2001 25.3334 14.1335 26.2668 14.8001 26.1334C15.4668 26 15.7335 24.9334 15.4668 23.7334C15.2 22.5334 14.2668 21.6 13.6001 21.7334C12.9335 21.8666 12.5335 22.9334 12.9335 24.1334Z" fill="#FFD15C"/>
<path d="M64 43.0667H0V48.8H64V43.0667Z" fill="#FFD15C"/>
<path d="M58.6669 48.9333H5.3335V64H58.6669V48.9333Z" fill="#F7B64C"/>
<path d="M60.6664 20.9334H40.3998C39.5998 20.9334 39.0664 21.4668 39.0664 22.2668V37.2C39.0664 38 39.5998 38.5334 40.3998 38.5334H60.7998C61.5998 38.5334 62.1332 38 62.1332 37.2V22.2666C61.9998 21.4666 61.4664 20.9334 60.6664 20.9334Z" fill="#415A6B"/>
</svg>
