<svg width="1920" height="631" viewBox="0 0 1920 631" fill="none" xmlns="http://www.w3.org/2000/svg">
<g clip-path="url(#clip0)">
<path d="M2175 180.286L1836 384.91L2163 695.903L2175 180.286Z" fill="#0D3169" stroke="#0D3169" stroke-miterlimit="1" stroke-linejoin="round"/>
<path d="M2163 695.903L1836 384.91L1781 576.013L2163 695.903Z" fill="#0E336C" stroke="#0E336C" stroke-miterlimit="1" stroke-linejoin="round"/>
<path d="M2163 695.903L1781 576.013L1898 730.157L2163 695.903Z" fill="#0C2E64" stroke="#0C2E64" stroke-miterlimit="1" stroke-linejoin="round"/>
<path d="M2175 180.286L2117 -33.353L1809 -55.8887L2175 180.286Z" fill="#0D3066" stroke="#0D3066" stroke-miterlimit="1" stroke-linejoin="round"/>
<path d="M2175 180.286L1809 -55.8887L1836 384.91L2175 180.286Z" fill="#113A76" stroke="#113A76" stroke-miterlimit="1" stroke-linejoin="round"/>
<path d="M1836 384.91L1809 -55.8887L1493 287.556L1836 384.91Z" fill="#1D5AA8" stroke="#1D5AA8" stroke-miterlimit="1" stroke-linejoin="round"/>
<path d="M1898 730.157L1781 576.013L1675 945.599L1898 730.157Z" fill="#0C2E64" stroke="#0C2E64" stroke-miterlimit="1" stroke-linejoin="round"/>
<path d="M1781 576.013L1537 533.646L1675 945.599L1781 576.013Z" fill="#0D336B" stroke="#0D336B" stroke-miterlimit="1" stroke-linejoin="round"/>
<path d="M1836 384.91L1537 533.646L1781 576.013L1836 384.91Z" fill="#134384" stroke="#134384" stroke-miterlimit="1" stroke-linejoin="round"/>
<path d="M1836 384.91L1493 287.556L1537 533.646L1836 384.91Z" fill="#1C5EAB" stroke="#1C5EAB" stroke-miterlimit="1" stroke-linejoin="round"/>
<path d="M1675 945.599L1537 533.646L1361 700.41L1675 945.599Z" fill="#0C3067" stroke="#0C3067" stroke-miterlimit="1" stroke-linejoin="round"/>
<path d="M1809 -55.8885L1345 -234.371L1493 287.556L1809 -55.8885Z" fill="#113A78" stroke="#113A78" stroke-miterlimit="1" stroke-linejoin="round"/>
<path d="M1493 287.556L1345 -234.371L1119 54.0858L1493 287.556Z" fill="#0E3570" stroke="#0E3570" stroke-miterlimit="1" stroke-linejoin="round"/>
<path d="M1493 287.556L1119 54.0857L1108 134.313L1493 287.556Z" fill="#0E3671" stroke="#0E3671" stroke-miterlimit="1" stroke-linejoin="round"/>
<path d="M1537 533.646L1493 287.556L1263 382.206L1537 533.646Z" fill="#144587" stroke="#144587" stroke-miterlimit="1" stroke-linejoin="round"/>
<path d="M1537 533.646L1263 382.206L1361 700.41L1537 533.646Z" fill="#0F3873" stroke="#0F3873" stroke-miterlimit="1" stroke-linejoin="round"/>
<path d="M1493 287.556L1108 134.313L1263 382.206L1493 287.556Z" fill="#103A77" stroke="#103A77" stroke-miterlimit="1" stroke-linejoin="round"/>
<path d="M1345 -234.371L1013 -7.21133L1119 54.0858L1345 -234.371Z" fill="#0B2F65" stroke="#0B2F65" stroke-miterlimit="1" stroke-linejoin="round"/>
<path d="M1361 700.41L1263 382.206L970 550.773L1361 700.41Z" fill="#0C3169" stroke="#0C3169" stroke-miterlimit="1" stroke-linejoin="round"/>
<path d="M1361 700.41L970 550.773L1150 779.736L1361 700.41Z" fill="#0B2D63" stroke="#0B2D63" stroke-miterlimit="1" stroke-linejoin="round"/>
<path d="M1263 382.206L1046 356.966L970 550.773L1263 382.206Z" fill="#0C3169" stroke="#0C3169" stroke-miterlimit="1" stroke-linejoin="round"/>
<path d="M1263 382.206L1108 134.313L1046 356.966L1263 382.206Z" fill="#0D336D" stroke="#0D336D" stroke-miterlimit="1" stroke-linejoin="round"/>
<path d="M1108 134.313L1093 127.101L1046 356.966L1108 134.313Z" fill="#0C326A" stroke="#0C326A" stroke-miterlimit="1" stroke-linejoin="round"/>
<path d="M1119 54.0857L1093 127.101L1108 134.313L1119 54.0857Z" fill="#0C3169" stroke="#0C3169" stroke-miterlimit="1" stroke-linejoin="round"/>
<path d="M1150 779.736L970 550.773L878 631L1150 779.736Z" fill="#0A2C61" stroke="#0A2C61" stroke-miterlimit="1" stroke-linejoin="round"/>
<path d="M1150 779.736L878 631L902 830.216L1150 779.736Z" fill="#092A5E" stroke="#092A5E" stroke-miterlimit="1" stroke-linejoin="round"/>
<path d="M1093 127.101L784 103.664L1046 356.966L1093 127.101Z" fill="#0B3068" stroke="#0B3068" stroke-miterlimit="1" stroke-linejoin="round"/>
<path d="M1119 54.0857L1013 -7.21143L1093 127.101L1119 54.0857Z" fill="#0B3067" stroke="#0B3067" stroke-miterlimit="1" stroke-linejoin="round"/>
<path d="M1046 356.966L784 103.664L846 404.741L1046 356.966Z" fill="#0B3068" stroke="#0B3068" stroke-miterlimit="1" stroke-linejoin="round"/>
<path d="M1093 127.101L1013 -7.21143L784 103.664L1093 127.101Z" fill="#0B2F66" stroke="#0B2F66" stroke-miterlimit="1" stroke-linejoin="round"/>
<path d="M1046 356.966L846 404.741L970 550.773L1046 356.966Z" fill="#0B2F66" stroke="#0B2F66" stroke-miterlimit="1" stroke-linejoin="round"/>
<path d="M1013 -7.21143L755 65.8043L784 103.664L1013 -7.21143Z" fill="#0A2E66" stroke="#0A2E66" stroke-miterlimit="1" stroke-linejoin="round"/>
<path d="M1013 -7.21146L751 -85.6357L755 65.8043L1013 -7.21146Z" fill="#0A2D64" stroke="#0A2D64" stroke-miterlimit="1" stroke-linejoin="round"/>
<path d="M846 404.741L784 103.664L704 360.571L846 404.741Z" fill="#0A316A" stroke="#0A316A" stroke-miterlimit="1" stroke-linejoin="round"/>
<path d="M970 550.773L823 609.366L878 631L970 550.773Z" fill="#0A2C62" stroke="#0A2C62" stroke-miterlimit="1" stroke-linejoin="round"/>
<path d="M970 550.773L846 404.741L823 609.366L970 550.773Z" fill="#0A2E64" stroke="#0A2E64" stroke-miterlimit="1" stroke-linejoin="round"/>
<path d="M878 631L823 609.366L675 738.27L878 631Z" fill="#092B60" stroke="#092B60" stroke-miterlimit="1" stroke-linejoin="round"/>
<path d="M902 830.216L878 631L675 738.27L902 830.216Z" fill="#092A5E" stroke="#092A5E" stroke-miterlimit="1" stroke-linejoin="round"/>
<path d="M846 404.741L704 360.571L823 609.366L846 404.741Z" fill="#0A2F66" stroke="#0A2F66" stroke-miterlimit="1" stroke-linejoin="round"/>
<path d="M704 360.571L367 593.14L675 738.27L704 360.571Z" fill="#092D65" stroke="#092D65" stroke-miterlimit="1" stroke-linejoin="round"/>
<path d="M784 103.664L567 99.1572L704 360.572L784 103.664Z" fill="#0A336E" stroke="#0A336E" stroke-miterlimit="1" stroke-linejoin="round"/>
<path d="M823 609.366L704 360.571L675 738.27L823 609.366Z" fill="#092D63" stroke="#092D63" stroke-miterlimit="1" stroke-linejoin="round"/>
<path d="M755 65.8043L751 -85.6357L671 -70.3115L755 65.8043Z" fill="#092E65" stroke="#092E65" stroke-miterlimit="1" stroke-linejoin="round"/>
<path d="M784 103.664L755 65.8042L567 99.1571L784 103.664Z" fill="#0A316A" stroke="#0A316A" stroke-miterlimit="1" stroke-linejoin="round"/>
<path d="M704 360.572L567 99.1572L444 225.357L704 360.572Z" fill="#0B3877" stroke="#0B3877" stroke-miterlimit="1" stroke-linejoin="round"/>
<path d="M755 65.8042L671 -70.3115L567 99.157L755 65.8042Z" fill="#0A3069" stroke="#0A3069" stroke-miterlimit="1" stroke-linejoin="round"/>
<path d="M704 360.571L444 225.357L394 241.583L704 360.571Z" fill="#0B3A7C" stroke="#0B3A7C" stroke-miterlimit="1" stroke-linejoin="round"/>
<path d="M704 360.571L394 241.583L367 593.14L704 360.571Z" fill="#0A3573" stroke="#0A3573" stroke-miterlimit="1" stroke-linejoin="round"/>
<path d="M675 738.27L367 593.14L437 945.599L675 738.27Z" fill="#08285C" stroke="#08285C" stroke-miterlimit="1" stroke-linejoin="round"/>
<path d="M671 -70.3115L417 -271.33L567 99.1571L671 -70.3115Z" fill="#092D64" stroke="#092D64" stroke-miterlimit="1" stroke-linejoin="round"/>
<path d="M394 241.583L232 294.767L367 593.14L394 241.583Z" fill="#0A3572" stroke="#0A3572" stroke-miterlimit="1" stroke-linejoin="round"/>
<path d="M567 99.1572L186 -80.2271L444 225.357L567 99.1572Z" fill="#0A3572" stroke="#0A3572" stroke-miterlimit="1" stroke-linejoin="round"/>
<path d="M567 99.1571L417 -271.33L186 -80.2272L567 99.1571Z" fill="#082C63" stroke="#082C63" stroke-miterlimit="1" stroke-linejoin="round"/>
<path d="M367 593.14L232 294.767L181 461.531L367 593.14Z" fill="#092F68" stroke="#092F68" stroke-miterlimit="1" stroke-linejoin="round"/>
<path d="M394 241.583L186 -80.2271L120 55.8887L394 241.583Z" fill="#093069" stroke="#093069" stroke-miterlimit="1" stroke-linejoin="round"/>
<path d="M437 945.599L367 593.14L193 945.599H437Z" fill="#072658" stroke="#072658" stroke-miterlimit="1" stroke-linejoin="round"/>
<path d="M444 225.357L186 -80.2271L394 241.583L444 225.357Z" fill="#0A3675" stroke="#0A3675" stroke-miterlimit="1" stroke-linejoin="round"/>
<path d="M394 241.583L120 55.8887L232 294.767L394 241.583Z" fill="#0A3471" stroke="#0A3471" stroke-miterlimit="1" stroke-linejoin="round"/>
<path d="M193 945.599L132 468.743L61 945.599H193Z" fill="#072557" stroke="#072557" stroke-miterlimit="1" stroke-linejoin="round"/>
<path d="M367 593.14L132 468.743L193 945.599L367 593.14Z" fill="#08285C" stroke="#08285C" stroke-miterlimit="1" stroke-linejoin="round"/>
<path d="M367 593.14L181 461.531L132 468.743L367 593.14Z" fill="#082C63" stroke="#082C63" stroke-miterlimit="1" stroke-linejoin="round"/>
<path d="M132 468.743L-82 892.414L61 945.599L132 468.743Z" fill="#072455" stroke="#072455" stroke-miterlimit="1" stroke-linejoin="round"/>
<path d="M181 461.531L42 311.894L132 468.743L181 461.531Z" fill="#082C62" stroke="#082C62" stroke-miterlimit="1" stroke-linejoin="round"/>
<path d="M232 294.767L42 311.894L181 461.531L232 294.767Z" fill="#082E66" stroke="#082E66" stroke-miterlimit="1" stroke-linejoin="round"/>
<path d="M232 294.767L120 55.8887L42 311.894L232 294.767Z" fill="#082E66" stroke="#082E66" stroke-miterlimit="1" stroke-linejoin="round"/>
<path d="M132 468.743L-292 547.167L-82 892.414L132 468.743Z" fill="#072456" stroke="#072456" stroke-miterlimit="1" stroke-linejoin="round"/>
<path d="M132 468.743L-149 423.671L-292 547.167L132 468.743Z" fill="#072558" stroke="#072558" stroke-miterlimit="1" stroke-linejoin="round"/>
<path d="M186 -80.227L37 -109.073L120 55.8887L186 -80.227Z" fill="#08295E" stroke="#08295E" stroke-miterlimit="1" stroke-linejoin="round"/>
<path d="M120 55.8887L37 -109.073L-127 7.21153L120 55.8887Z" fill="#07275B" stroke="#07275B" stroke-miterlimit="1" stroke-linejoin="round"/>
<path d="M120 55.8887L-166 187.497L42 311.894L120 55.8887Z" fill="#08295E" stroke="#08295E" stroke-miterlimit="1" stroke-linejoin="round"/>
<path d="M120 55.8886L-127 7.21143L-166 187.497L120 55.8886Z" fill="#07275A" stroke="#07275A" stroke-miterlimit="1" stroke-linejoin="round"/>
<path d="M132 468.743L42 311.894L-149 423.671L132 468.743Z" fill="#07295D" stroke="#07295D" stroke-miterlimit="1" stroke-linejoin="round"/>
<path d="M37 -109.073L-536 -215.441L-127 7.21146L37 -109.073Z" fill="#062354" stroke="#062354" stroke-miterlimit="1" stroke-linejoin="round"/>
<path d="M42 311.894L-166 187.497L-149 423.671L42 311.894Z" fill="#07275A" stroke="#07275A" stroke-miterlimit="1" stroke-linejoin="round"/>
</g>
<defs>
<clipPath id="clip0">
<rect width="1920" height="631" fill="white"/>
</clipPath>
</defs>
</svg>
