<svg width="523" height="478" viewBox="0 0 523 478" fill="none" xmlns="http://www.w3.org/2000/svg">
<path d="M207.179 411.719C254.53 423.459 305.186 422.893 351.346 406.258C437.486 375.204 515.57 286.819 515.481 192.155C515.406 117.311 457.543 40.0707 383.315 23.9114C335.667 13.4957 313.436 50.4418 296.952 88.5336C288.599 107.877 281.169 128.069 268.944 145.344C252.088 169.151 230.631 175.788 201.938 174.791C142.66 172.737 87.1943 198.598 78.9153 262.833C73.7484 303.008 93.463 343.912 123.586 369.966C146.934 390.143 175.955 403.966 207.179 411.719Z" fill="url(#paint0_linear)"/>
<path d="M199.973 126.134C182.76 160.849 164.013 194.804 140.635 225.634C118.493 254.828 91.3487 283.07 85.4522 319.227C78.0071 365.16 105.673 419.292 139.429 449.379C158.98 466.803 185.589 477.576 211.512 473.752C270.88 465.003 263.628 404.815 276.865 361.247C291.756 312.487 336.53 280.986 368.902 244.189C391.654 218.328 411.622 188.703 418.769 155.031C433.019 87.9682 383.271 -10.4902 303.564 4.34477C277.893 9.12113 256.019 26.6642 240.533 47.6593C222.993 71.422 212.972 99.9016 199.973 126.134Z" fill="url(#paint1_linear)"/>
<path opacity="0.2" d="M477.362 151.772L476.319 152.427C471.227 155.402 464.065 157.783 458.272 155.402C451.423 152.546 450.664 143.826 452.048 137.443C453.901 127.743 457.683 118.514 463.171 110.302C468.07 103.368 476.93 93.9348 486.415 97.8481C494.232 101.122 496.957 111.761 496.362 119.409C495.862 125.891 493.891 132.174 490.599 137.781C487.307 143.389 482.78 148.173 477.362 151.772V151.772Z" fill="#2E2E2E"/>
<path d="M481.858 119.394L480.548 120.212C474.16 124.036 465.152 126.953 457.87 123.902C449.264 120.316 448.311 109.365 450.038 101.345C452.629 89.2775 456.843 77.3738 464.02 67.2557C470.17 58.5511 481.293 46.6325 493.205 51.6023C503.032 55.7091 506.442 69.071 505.697 78.6832C505.081 86.8332 502.614 94.7356 498.483 101.79C494.352 108.844 488.667 114.865 481.858 119.394Z" fill="url(#paint2_linear)"/>
<path d="M109.366 128.217C112.582 151.072 92.3314 175.386 73.8527 186.352C55.1357 197.452 6.32573 208.671 2.37983 176.249C1.32263 167.529 4.27088 158.691 8.91662 151.236C19.3397 134.378 35.7189 122.414 53.4531 114.037C62.3133 109.822 71.939 107.453 81.7445 107.073C89.8447 106.925 98.3768 109.41 103.767 115.466C106.863 119.064 108.813 123.504 109.366 128.217V128.217Z" fill="#FFC44E"/>
<path d="M55.8035 268.262C55.3568 280.166 43.5936 292.56 29.5819 296.042C15.5703 299.524 4.56643 292.144 5.01313 279.511C5.45984 266.878 17.1933 254.32 31.205 251.567C45.2166 248.814 56.2502 256.358 55.8035 268.262Z" fill="url(#paint3_linear)"/>
<path d="M330.496 432.191H171.601L191.483 425.505C198.441 423.149 204.487 418.659 208.768 412.669C213.048 406.679 215.347 399.491 215.341 392.119V353.645H286.657V392.119C286.647 399.492 288.945 406.681 293.226 412.671C297.507 418.662 303.555 423.151 310.515 425.505L330.496 432.191Z" fill="#DBE9FF"/>
<path d="M427.679 124.094H74.3984C69.9732 124.094 66.386 127.694 66.386 132.136V359.252C66.386 363.694 69.9732 367.294 74.3984 367.294H427.679C432.104 367.294 435.691 363.694 435.691 359.252V132.136C435.691 127.694 432.104 124.094 427.679 124.094Z" fill="#F2EAFF"/>
<path d="M420.422 132.216H81.6554C77.6914 132.216 74.478 135.441 74.478 139.42V328.521C74.478 332.499 77.6914 335.725 81.6554 335.725H420.422C424.386 335.725 427.599 332.499 427.599 328.521V139.42C427.599 135.441 424.386 132.216 420.422 132.216Z" fill="#242E6C"/>
<path opacity="0.25" d="M288.088 401.938L215.4 379.208V367.234H286.717V392.059C286.706 395.401 287.168 398.726 288.088 401.938Z" fill="#98B5D0"/>
<path opacity="0.25" d="M435.711 227.704V312.875L382.726 253.287C381.204 251.564 380.423 249.306 380.553 247.007C380.683 244.707 381.715 242.553 383.422 241.014L412.648 214.832C414.365 213.305 416.614 212.521 418.905 212.652C421.196 212.782 423.342 213.817 424.875 215.531L435.711 227.704Z" fill="black"/>
<path d="M96.01 191.385C95.4915 192.6 94.7375 193.7 93.7917 194.621C92.8459 195.541 91.7272 196.264 90.5007 196.747C89.2741 197.23 87.9643 197.463 86.6471 197.433C85.33 197.403 84.0319 197.111 82.8284 196.573L67.917 190.047L74.6172 174.662L75.9294 171.668L90.8408 178.194C92.047 178.714 93.1385 179.47 94.0523 180.416C94.966 181.363 95.684 182.481 96.1646 183.708C96.6452 184.934 96.879 186.244 96.8525 187.562C96.826 188.879 96.5396 190.179 96.01 191.385Z" fill="#E050E6"/>
<g style="mix-blend-mode:overlay" opacity="0.25">
<path d="M92.9481 193.619C92.4632 194.702 91.79 195.688 90.9599 196.533C89.6838 197.105 88.3018 197.401 86.904 197.401C85.5063 197.401 84.1242 197.105 82.8481 196.533L67.9368 190.007L74.6369 174.622L87.7192 180.349C88.9405 180.863 90.047 181.618 90.9738 182.567C91.9006 183.517 92.629 184.643 93.1161 185.88C93.6032 187.116 93.8393 188.437 93.8104 189.767C93.7816 191.096 93.4884 192.406 92.9481 193.619Z" fill="black"/>
</g>
<path d="M21.6122 169.673L36.5236 176.198L44.4763 157.779L29.5649 151.253C28.3613 150.716 27.0633 150.423 25.7462 150.393C24.429 150.364 23.1191 150.597 21.8926 151.08C20.6661 151.562 19.5474 152.285 18.6016 153.206C17.6558 154.126 16.9018 155.226 16.3833 156.442C15.8492 157.654 15.561 158.96 15.5353 160.285C15.5097 161.609 15.7472 162.926 16.2339 164.158C16.7207 165.389 17.4469 166.511 18.3704 167.458C19.2938 168.405 20.3958 169.158 21.6122 169.673Z" fill="#242E6C"/>
<path d="M78.0965 197.611V197.711L69.0901 208.048L63.3243 214.912C62.6573 215.759 61.6824 216.305 60.6142 216.431C59.546 216.556 58.4719 216.25 57.6282 215.581C56.7845 214.911 56.2404 213.933 56.1155 212.861C55.9906 211.788 56.2951 210.71 56.9622 209.864L63.4436 199.886L68.5135 192.083L77.52 197.212L78.0965 197.611Z" fill="#414B8E"/>
<path d="M70.2631 166.18L60.0836 189.628L18.0733 183.043C17.0283 182.839 16.1006 182.242 15.4798 181.374C14.8589 180.506 14.5918 179.432 14.7331 178.373C14.7897 177.995 14.8967 177.626 15.0512 177.276L30.5988 141.515C30.843 140.938 31.213 140.424 31.6816 140.009C32.1502 139.595 32.7054 139.291 33.3063 139.121C33.9072 138.951 34.5386 138.918 35.1539 139.025C35.7692 139.132 36.3527 139.376 36.8616 139.739L66.6843 163.307L70.2631 166.18Z" fill="#E050E6"/>
<path d="M94.1015 177.256L84.3991 199.606C83.959 200.594 83.1499 201.37 82.146 201.765C81.142 202.161 80.0235 202.145 79.031 201.722L75.8301 200.325L66.0482 196.034L62.5092 194.478C62.0126 194.261 61.5634 193.948 61.1876 193.556C60.8117 193.165 60.5165 192.703 60.3188 192.197C60.1212 191.691 60.025 191.15 60.0359 190.607C60.0467 190.063 60.1643 189.527 60.3819 189.03L61.6344 186.156L70.1041 166.679C70.5405 165.677 71.3547 164.89 72.3684 164.49C73.3821 164.09 74.5125 164.109 75.512 164.544L92.0536 171.788C92.3592 171.924 92.6465 172.098 92.9086 172.307C93.6296 172.879 94.1388 173.678 94.3551 174.575C94.5713 175.472 94.482 176.416 94.1015 177.256Z" fill="#F2EAFF"/>
<path opacity="0.1" d="M70.2631 166.18L60.0836 189.628L18.0733 183.043C17.0283 182.839 16.1006 182.241 15.4798 181.374C14.8589 180.506 14.5918 179.432 14.7331 178.373C26.4435 179.65 51.1964 181.646 56.9422 178.712C62.6881 175.779 65.6306 166.998 66.6247 163.307L70.2631 166.18Z" fill="black"/>
<path opacity="0.05" d="M94.1015 177.256L84.3991 199.606C83.9589 200.595 83.1499 201.37 82.1459 201.765C81.142 202.161 80.0235 202.145 79.031 201.722L62.4893 194.478C61.9927 194.261 61.5435 193.948 61.1677 193.556C60.7918 193.165 60.4966 192.703 60.2989 192.197C60.1013 191.691 60.0051 191.151 60.016 190.607C60.0268 190.064 60.1444 189.528 60.362 189.03L61.6145 186.156C65.7897 188.152 76.8043 193.22 80.6415 193.58C84.4786 193.939 90.3836 178.992 92.8887 172.287C93.6176 172.858 94.1337 173.659 94.3537 174.56C94.5737 175.462 94.4849 176.411 94.1015 177.256Z" fill="black"/>
<path opacity="0.25" d="M75.7703 200.325L69.09 208.048C66.9592 205.505 65.0438 202.788 63.364 199.926L65.889 196.034L75.7703 200.325Z" fill="black"/>
<path d="M313.517 28.7251H225.779C223.67 28.7251 221.647 29.5661 220.155 31.0631C218.664 32.5601 217.826 34.5904 217.826 36.7074V88.5325C217.826 90.6496 218.664 92.6799 220.155 94.1769C221.647 95.6738 223.67 96.5148 225.779 96.5148H253.613V106.493C253.607 106.978 253.747 107.455 254.013 107.861C254.279 108.267 254.66 108.583 255.107 108.77C255.553 108.957 256.046 109.005 256.52 108.908C256.995 108.812 257.429 108.575 257.769 108.229L269.519 96.435H313.537C315.646 96.435 317.669 95.594 319.161 94.097C320.652 92.6001 321.49 90.5697 321.49 88.4527V36.7673C321.498 35.7123 321.297 34.6663 320.9 33.6896C320.503 32.7129 319.916 31.825 319.175 31.0771C318.433 30.3293 317.552 29.7364 316.581 29.3327C315.61 28.9289 314.568 28.7225 313.517 28.7251Z" fill="#0076D0"/>
<path d="M255.701 66.7209C257.282 66.7209 258.564 65.4343 258.564 63.8473C258.564 62.2602 257.282 60.9736 255.701 60.9736C254.12 60.9736 252.838 62.2602 252.838 63.8473C252.838 65.4343 254.12 66.7209 255.701 66.7209Z" fill="url(#paint4_linear)"/>
<path d="M269.658 66.7209C271.239 66.7209 272.521 65.4343 272.521 63.8473C272.521 62.2602 271.239 60.9736 269.658 60.9736C268.077 60.9736 266.795 62.2602 266.795 63.8473C266.795 65.4343 268.077 66.7209 269.658 66.7209Z" fill="url(#paint5_linear)"/>
<path d="M283.595 66.7209C285.176 66.7209 286.458 65.4343 286.458 63.8473C286.458 62.2602 285.176 60.9736 283.595 60.9736C282.014 60.9736 280.732 62.2602 280.732 63.8473C280.732 65.4343 282.014 66.7209 283.595 66.7209Z" fill="url(#paint6_linear)"/>
<path d="M5.73779 238.121H46.6944C47.6841 238.126 48.6317 238.523 49.3316 239.225C50.0314 239.928 50.4269 240.879 50.4321 241.873V266.039C50.4269 267.032 50.0314 267.984 49.3316 268.686C48.6317 269.388 47.6841 269.785 46.6944 269.791H33.6916V274.48C33.7026 274.716 33.64 274.95 33.5126 275.149C33.3851 275.348 33.1991 275.502 32.9805 275.589C32.7618 275.677 32.5214 275.694 32.2925 275.639C32.0636 275.583 31.8577 275.457 31.7035 275.278L26.2161 269.771H5.73779C4.74807 269.765 3.80039 269.368 3.10054 268.666C2.4007 267.964 2.00522 267.012 2 266.019V241.873C2.00522 240.879 2.4007 239.928 3.10054 239.225C3.80039 238.523 4.74807 238.126 5.73779 238.121Z" fill="#F2EAFF"/>
<path d="M32.7174 255.842C33.4531 255.842 34.0495 255.243 34.0495 254.505C34.0495 253.766 33.4531 253.167 32.7174 253.167C31.9818 253.167 31.3854 253.766 31.3854 254.505C31.3854 255.243 31.9818 255.842 32.7174 255.842Z" fill="#6615B2"/>
<path d="M26.2161 255.842C26.9518 255.842 27.5482 255.243 27.5482 254.505C27.5482 253.766 26.9518 253.167 26.2161 253.167C25.4804 253.167 24.884 253.766 24.884 254.505C24.884 255.243 25.4804 255.842 26.2161 255.842Z" fill="#6615B2"/>
<path d="M19.6949 255.842C20.4306 255.842 21.027 255.243 21.027 254.505C21.027 253.766 20.4306 253.167 19.6949 253.167C18.9592 253.167 18.3628 253.766 18.3628 254.505C18.3628 255.243 18.9592 255.842 19.6949 255.842Z" fill="#6615B2"/>
<path d="M481.957 198.649C484.323 194.333 482.755 188.909 478.454 186.534C474.154 184.159 468.75 185.733 466.384 190.049C464.018 194.365 465.586 199.79 469.886 202.165C474.186 204.539 479.59 202.966 481.957 198.649Z" fill="#FFEC00"/>
<path d="M467.244 207.03C466.506 206.621 465.96 205.936 465.726 205.124C465.491 204.313 465.586 203.441 465.991 202.699L467.065 200.704C467.472 199.964 468.154 199.416 468.963 199.18C469.772 198.944 470.64 199.04 471.379 199.447C472.116 199.855 472.662 200.54 472.897 201.352C473.132 202.164 473.036 203.036 472.631 203.777L471.558 205.773C471.151 206.513 470.468 207.061 469.66 207.296C468.851 207.532 467.982 207.436 467.244 207.03Z" fill="#B4CDF6"/>
<path d="M485.078 190.167C485.056 190.096 485.049 190.022 485.057 189.949C485.064 189.875 485.086 189.804 485.121 189.739C485.156 189.674 485.204 189.617 485.261 189.57C485.319 189.524 485.385 189.489 485.455 189.469L490.485 188.012C490.556 187.991 490.63 187.983 490.703 187.991C490.776 187.998 490.847 188.02 490.912 188.056C490.977 188.091 491.034 188.139 491.08 188.196C491.126 188.254 491.161 188.32 491.181 188.391C491.202 188.462 491.21 188.536 491.202 188.61C491.195 188.683 491.173 188.755 491.138 188.82C491.102 188.884 491.055 188.942 490.997 188.988C490.94 189.035 490.874 189.069 490.803 189.09L485.773 190.546C485.703 190.568 485.629 190.575 485.556 190.567C485.482 190.56 485.411 190.538 485.347 190.503C485.282 190.467 485.225 190.42 485.179 190.362C485.132 190.304 485.098 190.238 485.078 190.167Z" fill="#FFEC00"/>
<path d="M480.008 183.781C479.879 183.71 479.783 183.59 479.742 183.448C479.701 183.306 479.718 183.153 479.789 183.023L482.314 178.413C482.385 178.284 482.505 178.188 482.647 178.147C482.788 178.106 482.94 178.123 483.07 178.194C483.199 178.265 483.294 178.385 483.335 178.528C483.376 178.67 483.359 178.823 483.288 178.952L480.763 183.642C480.679 183.758 480.554 183.837 480.413 183.863C480.273 183.889 480.127 183.86 480.008 183.781Z" fill="#FFEC00"/>
<path d="M471.916 182.883C471.845 182.905 471.771 182.912 471.698 182.904C471.625 182.897 471.554 182.875 471.489 182.84C471.424 182.804 471.367 182.756 471.321 182.699C471.275 182.641 471.24 182.575 471.22 182.504L469.768 177.455C469.747 177.385 469.74 177.31 469.748 177.237C469.755 177.163 469.777 177.092 469.812 177.027C469.847 176.962 469.895 176.905 469.952 176.858C470.01 176.812 470.076 176.777 470.146 176.757C470.217 176.735 470.291 176.728 470.364 176.736C470.437 176.743 470.508 176.765 470.573 176.801C470.638 176.836 470.695 176.884 470.741 176.941C470.787 176.999 470.822 177.065 470.842 177.136L472.294 182.185C472.315 182.256 472.322 182.33 472.315 182.403C472.307 182.477 472.285 182.548 472.25 182.613C472.215 182.678 472.167 182.735 472.11 182.782C472.052 182.828 471.986 182.863 471.916 182.883Z" fill="#FFEC00"/>
<path opacity="0.25" d="M407.956 185.996H296.856C292.431 185.996 288.844 189.597 288.844 194.039V277.234C288.844 281.676 292.431 285.276 296.856 285.276H407.956C412.381 285.276 415.968 281.676 415.968 277.234V194.039C415.968 189.597 412.381 185.996 407.956 185.996Z" fill="black"/>
<path d="M307.314 268.653C306.745 268.653 306.199 268.426 305.796 268.022C305.393 267.618 305.167 267.07 305.167 266.498V237.163C305.167 236.591 305.393 236.043 305.796 235.639C306.199 235.235 306.745 235.008 307.314 235.008C307.884 235.008 308.43 235.235 308.833 235.639C309.235 236.043 309.461 236.591 309.461 237.163V266.498C309.461 267.07 309.235 267.618 308.833 268.022C308.43 268.426 307.884 268.653 307.314 268.653Z" fill="#FF9255"/>
<path d="M320.635 268.653C320.066 268.653 319.519 268.426 319.117 268.022C318.714 267.618 318.488 267.07 318.488 266.498V248.937C318.488 248.365 318.714 247.817 319.117 247.413C319.519 247.009 320.066 246.782 320.635 246.782C320.917 246.782 321.196 246.837 321.457 246.946C321.717 247.054 321.954 247.213 322.153 247.413C322.353 247.613 322.511 247.851 322.619 248.112C322.727 248.374 322.782 248.654 322.782 248.937V266.498C322.782 266.781 322.727 267.061 322.619 267.323C322.511 267.584 322.353 267.822 322.153 268.022C321.954 268.222 321.717 268.381 321.457 268.489C321.196 268.597 320.917 268.653 320.635 268.653Z" fill="#E050E6"/>
<path d="M333.956 268.653C333.386 268.653 332.84 268.426 332.438 268.022C332.035 267.618 331.809 267.07 331.809 266.498V239.877C331.809 239.305 332.035 238.757 332.438 238.353C332.84 237.949 333.386 237.722 333.956 237.722C334.525 237.722 335.071 237.949 335.474 238.353C335.877 238.757 336.103 239.305 336.103 239.877V266.498C336.103 267.07 335.877 267.618 335.474 268.022C335.071 268.426 334.525 268.653 333.956 268.653Z" fill="#FF9255"/>
<path d="M347.296 268.653C346.727 268.653 346.181 268.426 345.778 268.022C345.375 267.618 345.149 267.069 345.149 266.498V253.986C345.149 253.414 345.375 252.866 345.778 252.462C346.181 252.057 346.727 251.83 347.296 251.83C347.866 251.83 348.412 252.057 348.815 252.462C349.217 252.866 349.444 253.414 349.444 253.986V266.498C349.444 267.069 349.217 267.618 348.815 268.022C348.412 268.426 347.866 268.653 347.296 268.653Z" fill="#E050E6"/>
<path d="M357.536 268.653C356.966 268.653 356.42 268.426 356.017 268.022C355.615 267.618 355.388 267.07 355.388 266.498V237.163C355.388 236.591 355.615 236.043 356.017 235.639C356.42 235.235 356.966 235.008 357.536 235.008C358.105 235.008 358.651 235.235 359.054 235.639C359.457 236.043 359.683 236.591 359.683 237.163V266.498C359.683 267.07 359.457 267.618 359.054 268.022C358.651 268.426 358.105 268.653 357.536 268.653Z" fill="#FF9255"/>
<path d="M370.876 268.653C370.307 268.653 369.761 268.426 369.358 268.022C368.955 267.618 368.729 267.07 368.729 266.498V248.937C368.729 248.365 368.955 247.817 369.358 247.413C369.761 247.009 370.307 246.782 370.876 246.782C371.446 246.782 371.992 247.009 372.395 247.413C372.797 247.817 373.023 248.365 373.023 248.937V266.498C373.023 267.07 372.797 267.618 372.395 268.022C371.992 268.426 371.446 268.653 370.876 268.653Z" fill="#E050E6"/>
<path d="M384.197 268.653C383.628 268.653 383.081 268.426 382.679 268.022C382.276 267.618 382.05 267.07 382.05 266.498V239.877C382.05 239.305 382.276 238.757 382.679 238.353C383.081 237.949 383.628 237.722 384.197 237.722C384.479 237.722 384.758 237.777 385.019 237.886C385.279 237.994 385.516 238.153 385.715 238.353C385.915 238.553 386.073 238.791 386.181 239.052C386.289 239.314 386.344 239.594 386.344 239.877V266.498C386.344 266.781 386.289 267.061 386.181 267.323C386.073 267.584 385.915 267.822 385.715 268.022C385.516 268.222 385.279 268.381 385.019 268.489C384.758 268.597 384.479 268.653 384.197 268.653Z" fill="#FF9255"/>
<path d="M397.518 268.653C396.948 268.653 396.402 268.426 396 268.022C395.597 267.618 395.371 267.069 395.371 266.498V253.986C395.371 253.414 395.597 252.866 396 252.462C396.402 252.057 396.948 251.83 397.518 251.83C398.087 251.83 398.633 252.057 399.036 252.462C399.439 252.866 399.665 253.414 399.665 253.986V266.498C399.665 267.069 399.439 267.618 399.036 268.022C398.633 268.426 398.087 268.653 397.518 268.653Z" fill="#E050E6"/>
<path d="M307.314 210.741L314.989 203.039L334.055 222.196L345.905 210.283L353.221 217.626L370.022 200.744L379.406 210.163L390.917 198.608L402.807 210.542" stroke="#F2EAFF" stroke-width="0.67" stroke-linecap="round" stroke-linejoin="round"/>
<path d="M314.969 205.753C316.462 205.753 317.673 204.538 317.673 203.039C317.673 201.54 316.462 200.325 314.969 200.325C313.475 200.325 312.265 201.54 312.265 203.039C312.265 204.538 313.475 205.753 314.969 205.753Z" fill="#F2EAFF"/>
<path d="M334.015 224.85C335.509 224.85 336.719 223.635 336.719 222.136C336.719 220.637 335.509 219.422 334.015 219.422C332.522 219.422 331.312 220.637 331.312 222.136C331.312 223.635 332.522 224.85 334.015 224.85Z" fill="#F2EAFF"/>
<path d="M345.805 213.017C347.299 213.017 348.509 211.801 348.509 210.303C348.509 208.804 347.299 207.589 345.805 207.589C344.312 207.589 343.102 208.804 343.102 210.303C343.102 211.801 344.312 213.017 345.805 213.017Z" fill="#F2EAFF"/>
<path d="M352.804 220.041C354.297 220.041 355.508 218.826 355.508 217.327C355.508 215.828 354.297 214.613 352.804 214.613C351.31 214.613 350.1 215.828 350.1 217.327C350.1 218.826 351.31 220.041 352.804 220.041Z" fill="#F2EAFF"/>
<path d="M369.962 203.777C371.455 203.777 372.666 202.562 372.666 201.063C372.666 199.564 371.455 198.349 369.962 198.349C368.468 198.349 367.258 199.564 367.258 201.063C367.258 202.562 368.468 203.777 369.962 203.777Z" fill="#F2EAFF"/>
<path d="M379.346 212.378C380.839 212.378 382.05 211.163 382.05 209.664C382.05 208.165 380.839 206.95 379.346 206.95C377.853 206.95 376.642 208.165 376.642 209.664C376.642 211.163 377.853 212.378 379.346 212.378Z" fill="#F2EAFF"/>
<path d="M390.858 201.323C392.351 201.323 393.562 200.107 393.562 198.609C393.562 197.11 392.351 195.895 390.858 195.895C389.364 195.895 388.154 197.11 388.154 198.609C388.154 200.107 389.364 201.323 390.858 201.323Z" fill="#F2EAFF"/>
<path d="M166.133 284.498C158.929 287.42 151.17 288.706 143.412 288.265C135.655 287.823 128.09 285.665 121.261 281.945C114.432 278.224 108.507 273.034 103.912 266.745C99.3158 260.456 96.1627 253.225 94.6782 245.57C93.1937 237.915 93.4146 230.024 95.325 222.465C97.2355 214.905 100.788 207.863 105.728 201.843C110.669 195.824 116.874 190.975 123.901 187.646C130.927 184.316 138.601 182.588 146.371 182.584V199.906C141.152 199.916 136.001 201.084 131.285 203.326C126.569 205.568 122.405 208.828 119.09 212.873C115.776 216.919 113.394 221.65 112.114 226.727C110.833 231.805 110.687 237.104 111.685 242.245C112.683 247.386 114.801 252.242 117.887 256.465C120.973 260.689 124.951 264.176 129.536 266.676C134.121 269.177 139.201 270.629 144.41 270.929C149.62 271.23 154.831 270.371 159.672 268.414L166.133 284.498Z" fill="#0076CF"/>
<path d="M199.077 235.527C199.077 246.061 195.943 256.355 190.077 265.09C184.211 273.825 175.881 280.604 166.153 284.558L159.692 268.493C165.405 266.168 170.415 262.387 174.226 257.524C178.038 252.66 180.519 246.883 181.424 240.762C182.33 234.641 181.628 228.389 179.39 222.624C177.151 216.858 173.452 211.779 168.658 207.888L179.534 194.418C185.644 199.37 190.571 205.632 193.953 212.746C197.335 219.86 199.086 227.644 199.077 235.527Z" fill="#42E8E0"/>
<path d="M179.514 194.358L168.638 207.828C162.358 202.678 154.501 199.859 146.391 199.846V182.584C158.452 182.568 170.151 186.726 179.514 194.358Z" fill="#F2EAFF"/>
<path opacity="0.25" d="M269.141 185.637H219.794C215.369 185.637 211.782 189.238 211.782 193.679V277.254C211.782 281.696 215.369 285.296 219.794 285.296H269.141C273.566 285.296 277.154 281.696 277.154 277.254V193.679C277.154 189.238 273.566 185.637 269.141 185.637Z" fill="black"/>
<path d="M244.468 192.682C248.146 192.682 251.128 189.689 251.128 185.996C251.128 182.304 248.146 179.311 244.468 179.311C240.789 179.311 237.807 182.304 237.807 185.996C237.807 189.689 240.789 192.682 244.468 192.682Z" fill="#C94390"/>
<path d="M244.468 188.211C245.686 188.211 246.675 187.22 246.675 185.996C246.675 184.773 245.686 183.781 244.468 183.781C243.249 183.781 242.261 184.773 242.261 185.996C242.261 187.22 243.249 188.211 244.468 188.211Z" fill="white"/>
<path d="M265.165 209.584H223.791C223.706 209.584 223.625 209.551 223.566 209.491C223.506 209.431 223.472 209.35 223.472 209.265C223.472 209.18 223.506 209.099 223.566 209.039C223.625 208.979 223.706 208.946 223.791 208.946H265.165C265.249 208.946 265.33 208.979 265.39 209.039C265.449 209.099 265.483 209.18 265.483 209.265C265.483 209.35 265.449 209.431 265.39 209.491C265.33 209.551 265.249 209.584 265.165 209.584Z" fill="#F2EAFF"/>
<path d="M265.165 216.07H223.791C223.706 216.07 223.625 216.036 223.566 215.976C223.506 215.916 223.472 215.835 223.472 215.75C223.472 215.666 223.506 215.585 223.566 215.525C223.625 215.465 223.706 215.431 223.791 215.431H265.165C265.249 215.431 265.33 215.465 265.39 215.525C265.449 215.585 265.483 215.666 265.483 215.75C265.483 215.835 265.449 215.916 265.39 215.976C265.33 216.036 265.249 216.07 265.165 216.07Z" fill="#F2EAFF"/>
<path d="M265.165 222.595H223.791C223.706 222.595 223.625 222.562 223.566 222.502C223.506 222.442 223.472 222.361 223.472 222.276C223.472 222.191 223.506 222.11 223.566 222.05C223.625 221.99 223.706 221.957 223.791 221.957H265.165C265.249 221.957 265.33 221.99 265.39 222.05C265.449 222.11 265.483 222.191 265.483 222.276C265.483 222.361 265.449 222.442 265.39 222.502C265.33 222.562 265.249 222.595 265.165 222.595Z" fill="#F2EAFF"/>
<path d="M265.165 229.121H223.791C223.706 229.121 223.625 229.087 223.566 229.027C223.506 228.967 223.472 228.886 223.472 228.801C223.472 228.717 223.506 228.636 223.566 228.576C223.625 228.516 223.706 228.482 223.791 228.482H265.165C265.249 228.482 265.33 228.516 265.39 228.576C265.449 228.636 265.483 228.717 265.483 228.801C265.483 228.886 265.449 228.967 265.39 229.027C265.33 229.087 265.249 229.121 265.165 229.121Z" fill="#F2EAFF"/>
<path d="M265.165 235.646H223.791C223.706 235.646 223.625 235.613 223.566 235.553C223.506 235.493 223.472 235.412 223.472 235.327C223.472 235.242 223.506 235.161 223.566 235.101C223.625 235.041 223.706 235.008 223.791 235.008H265.165C265.249 235.008 265.33 235.041 265.39 235.101C265.449 235.161 265.483 235.242 265.483 235.327C265.483 235.412 265.449 235.493 265.39 235.553C265.33 235.613 265.249 235.646 265.165 235.646Z" fill="#F2EAFF"/>
<path d="M265.165 242.192H223.791C223.706 242.192 223.625 242.158 223.566 242.098C223.506 242.038 223.472 241.957 223.472 241.873C223.472 241.788 223.506 241.707 223.566 241.647C223.625 241.587 223.706 241.553 223.791 241.553H265.165C265.249 241.553 265.33 241.587 265.39 241.647C265.449 241.707 265.483 241.788 265.483 241.873C265.483 241.957 265.449 242.038 265.39 242.098C265.33 242.158 265.249 242.192 265.165 242.192Z" fill="#F2EAFF"/>
<path d="M265.165 248.717H223.791C223.706 248.717 223.625 248.684 223.566 248.624C223.506 248.564 223.472 248.483 223.472 248.398C223.472 248.313 223.506 248.232 223.566 248.172C223.625 248.112 223.706 248.079 223.791 248.079H265.165C265.249 248.079 265.33 248.112 265.39 248.172C265.449 248.232 265.483 248.313 265.483 248.398C265.483 248.483 265.449 248.564 265.39 248.624C265.33 248.684 265.249 248.717 265.165 248.717Z" fill="#F2EAFF"/>
<path d="M265.165 255.243H223.791C223.706 255.243 223.625 255.209 223.566 255.149C223.506 255.089 223.472 255.008 223.472 254.924C223.472 254.839 223.506 254.758 223.566 254.698C223.625 254.638 223.706 254.604 223.791 254.604H265.165C265.249 254.604 265.33 254.638 265.39 254.698C265.449 254.758 265.483 254.839 265.483 254.924C265.483 255.008 265.449 255.089 265.39 255.149C265.33 255.209 265.249 255.243 265.165 255.243Z" fill="#F2EAFF"/>
<path d="M251.227 261.13H223.771C223.606 261.13 223.472 261.264 223.472 261.429V261.469C223.472 261.634 223.606 261.768 223.771 261.768H251.227C251.392 261.768 251.526 261.634 251.526 261.469V261.429C251.526 261.264 251.392 261.13 251.227 261.13Z" fill="#F2EAFF"/>
<path d="M474.731 262.505L421.047 202.133C417.859 198.548 412.379 198.236 408.807 201.436L379.586 227.613C376.015 230.813 375.704 236.313 378.891 239.898L432.575 300.27C435.763 303.855 441.243 304.167 444.815 300.967L474.036 274.79C477.607 271.59 477.919 266.09 474.731 262.505Z" fill="#F2EAFF"/>
<path d="M426.11 250.107C433.191 243.803 433.84 232.931 427.56 225.823C421.279 218.716 410.448 218.064 403.366 224.368C396.285 230.672 395.636 241.544 401.916 248.651C408.197 255.759 419.028 256.411 426.11 250.107Z" fill="#B5CAF7"/>
<path opacity="0.25" d="M422.561 246.091C427.433 241.754 427.879 234.275 423.559 229.385C419.238 224.496 411.787 224.047 406.915 228.384C402.044 232.721 401.597 240.2 405.917 245.089C410.238 249.979 417.69 250.427 422.561 246.091Z" fill="#607DBE"/>
<path d="M408.433 241.314H408.552C408.725 241.163 408.837 240.954 408.867 240.725C408.896 240.497 408.841 240.266 408.711 240.076C408.346 239.539 408.039 238.964 407.797 238.36C407.712 238.144 407.709 237.905 407.79 237.687C407.871 237.47 408.029 237.29 408.234 237.183L408.751 236.923C408.869 236.865 408.998 236.832 409.129 236.827C409.26 236.822 409.391 236.844 409.513 236.893C409.635 236.942 409.745 237.016 409.836 237.111C409.928 237.205 409.998 237.318 410.044 237.442C410.337 238.224 410.768 238.948 411.316 239.577C412.091 240.456 412.966 240.755 413.563 240.216C414.159 239.677 414.08 238.879 413.463 237.402C412.569 235.267 412.33 233.411 413.821 232.134C414.438 231.605 415.213 231.298 416.024 231.262C416.834 231.226 417.633 231.462 418.294 231.934C418.466 232.033 418.664 232.075 418.861 232.053C419.057 232.032 419.242 231.948 419.388 231.815L419.587 231.635C419.674 231.546 419.777 231.476 419.892 231.428C420.006 231.38 420.129 231.355 420.253 231.355C420.377 231.355 420.5 231.38 420.614 231.428C420.728 231.476 420.832 231.546 420.919 231.635C421.007 231.722 421.077 231.826 421.125 231.941C421.173 232.056 421.198 232.179 421.198 232.304C421.198 232.428 421.173 232.551 421.125 232.666C421.077 232.781 421.007 232.885 420.919 232.972C420.749 233.126 420.641 233.336 420.615 233.564C420.59 233.792 420.648 234.022 420.78 234.209C421.033 234.581 421.252 234.975 421.436 235.387C421.533 235.607 421.541 235.857 421.46 236.083C421.378 236.31 421.213 236.496 420.998 236.604L420.561 236.824C420.447 236.884 420.322 236.919 420.194 236.929C420.065 236.938 419.936 236.92 419.815 236.877C419.694 236.834 419.582 236.766 419.488 236.678C419.394 236.59 419.32 236.483 419.269 236.365C419.001 235.73 418.632 235.143 418.175 234.628C417.3 233.631 416.585 233.691 416.187 234.07C415.789 234.449 415.829 235.347 416.505 237.083C417.479 239.478 417.28 241.074 415.909 242.212C415.261 242.769 414.446 243.089 413.594 243.122C412.742 243.155 411.904 242.897 411.217 242.391C411.059 242.273 410.867 242.209 410.67 242.209C410.473 242.209 410.281 242.273 410.123 242.391L409.805 242.671C409.718 242.759 409.614 242.83 409.5 242.878C409.386 242.926 409.263 242.951 409.139 242.951C409.015 242.951 408.892 242.926 408.778 242.878C408.663 242.83 408.56 242.759 408.473 242.671C408.379 242.586 408.303 242.483 408.25 242.367C408.197 242.252 408.167 242.128 408.163 242.001C408.16 241.874 408.182 241.747 408.228 241.629C408.274 241.511 408.344 241.404 408.433 241.314Z" fill="white"/>
<path d="M457.402 270.509L439.369 250.234C439.18 250.043 439.074 249.785 439.074 249.515C439.074 249.246 439.18 248.988 439.369 248.797C439.56 248.607 439.817 248.5 440.085 248.5C440.354 248.5 440.611 248.607 440.801 248.797L458.834 269.072C459.023 269.263 459.13 269.521 459.13 269.791C459.13 270.06 459.023 270.318 458.834 270.509C458.644 270.699 458.386 270.806 458.118 270.806C457.85 270.806 457.592 270.699 457.402 270.509Z" fill="#B5CAF7"/>
<path d="M445.453 268.134L433.882 255.123C433.692 254.932 433.586 254.674 433.586 254.405C433.586 254.135 433.692 253.877 433.882 253.686C434.072 253.496 434.329 253.389 434.597 253.389C434.866 253.389 435.123 253.496 435.313 253.686L446.884 266.697C447.074 266.888 447.18 267.146 447.18 267.416C447.18 267.685 447.074 267.943 446.884 268.134C446.694 268.324 446.437 268.431 446.169 268.431C445.9 268.431 445.643 268.324 445.453 268.134Z" fill="#B5CAF7"/>
<path d="M442.252 275.578L428.335 260.032C428.145 259.841 428.039 259.583 428.039 259.314C428.039 259.045 428.145 258.786 428.335 258.595C428.525 258.405 428.782 258.299 429.051 258.299C429.319 258.299 429.576 258.405 429.766 258.595L443.684 274.141C443.873 274.332 443.979 274.59 443.979 274.859C443.979 275.129 443.873 275.387 443.684 275.578C443.493 275.768 443.236 275.875 442.968 275.875C442.699 275.875 442.442 275.768 442.252 275.578Z" fill="#B5CAF7"/>
<path d="M440.88 285.216L422.987 264.941C422.797 264.751 422.691 264.492 422.691 264.223C422.691 263.954 422.797 263.695 422.987 263.505C423.177 263.315 423.434 263.208 423.702 263.208C423.971 263.208 424.228 263.315 424.418 263.505L442.451 283.78C442.64 283.97 442.747 284.229 442.747 284.498C442.747 284.767 442.64 285.026 442.451 285.216C442.356 285.333 442.236 285.428 442.1 285.492C441.964 285.557 441.816 285.59 441.666 285.59C441.515 285.59 441.367 285.557 441.231 285.492C441.095 285.428 440.975 285.333 440.88 285.216Z" fill="#B5CAF7"/>
<path d="M236.455 312.296H133.447C129.022 312.296 125.435 315.897 125.435 320.339V353.964C125.435 358.406 129.022 362.006 133.447 362.006H236.455C240.88 362.006 244.468 358.406 244.468 353.964V320.339C244.468 315.897 240.88 312.296 236.455 312.296Z" fill="#C94390"/>
<path d="M157.465 345.722C162.175 345.722 165.994 341.889 165.994 337.161C165.994 332.433 162.175 328.6 157.465 328.6C152.754 328.6 148.935 332.433 148.935 337.161C148.935 341.889 152.754 345.722 157.465 345.722Z" fill="#F2EAFF"/>
<path d="M219.993 328.52H181.124C180.86 328.52 180.608 328.415 180.421 328.228C180.235 328.041 180.13 327.787 180.13 327.523C180.13 327.258 180.235 327.004 180.421 326.817C180.608 326.63 180.86 326.525 181.124 326.525H219.993C220.257 326.525 220.51 326.63 220.696 326.817C220.882 327.004 220.987 327.258 220.987 327.523C220.987 327.787 220.882 328.041 220.696 328.228C220.51 328.415 220.257 328.52 219.993 328.52Z" fill="#F2EAFF"/>
<path d="M219.993 334.946H181.124C180.86 334.946 180.608 334.841 180.421 334.654C180.235 334.467 180.13 334.213 180.13 333.948C180.13 333.684 180.235 333.43 180.421 333.243C180.608 333.056 180.86 332.951 181.124 332.951H219.993C220.257 332.951 220.51 333.056 220.696 333.243C220.882 333.43 220.987 333.684 220.987 333.948C220.987 334.213 220.882 334.467 220.696 334.654C220.51 334.841 220.257 334.946 219.993 334.946Z" fill="#F2EAFF"/>
<path d="M219.993 341.292H181.124C180.86 341.292 180.608 341.187 180.421 341C180.235 340.813 180.13 340.559 180.13 340.294C180.13 340.03 180.235 339.776 180.421 339.589C180.608 339.402 180.86 339.297 181.124 339.297H219.993C220.257 339.297 220.51 339.402 220.696 339.589C220.882 339.776 220.987 340.03 220.987 340.294C220.987 340.559 220.882 340.813 220.696 341C220.51 341.187 220.257 341.292 219.993 341.292Z" fill="#F2EAFF"/>
<path d="M219.993 347.778H181.124C180.86 347.778 180.608 347.673 180.421 347.485C180.235 347.298 180.13 347.045 180.13 346.78C180.13 346.515 180.235 346.262 180.421 346.074C180.608 345.887 180.86 345.782 181.124 345.782H219.993C220.257 345.782 220.51 345.887 220.696 346.074C220.882 346.262 220.987 346.515 220.987 346.78C220.987 347.045 220.882 347.298 220.696 347.485C220.51 347.673 220.257 347.778 219.993 347.778Z" fill="#F2EAFF"/>
<defs>
<linearGradient id="paint0_linear" x1="221.772" y1="97.6399" x2="389.569" y2="388.461" gradientUnits="userSpaceOnUse">
<stop stop-color="#9486FF"/>
<stop offset="1" stop-color="#940070"/>
</linearGradient>
<linearGradient id="paint1_linear" x1="195" y1="102.5" x2="350.017" y2="399.643" gradientUnits="userSpaceOnUse">
<stop offset="0.02" stop-color="#FFC44E"/>
<stop offset="1" stop-color="#F95385"/>
</linearGradient>
<linearGradient id="paint2_linear" x1="5848" y1="18104.4" x2="6966.25" y2="20039.3" gradientUnits="userSpaceOnUse">
<stop offset="0.02" stop-color="#FFC44E"/>
<stop offset="1" stop-color="#F95385"/>
</linearGradient>
<linearGradient id="paint3_linear" x1="515.707" y1="9698.48" x2="1112.51" y2="10842.3" gradientUnits="userSpaceOnUse">
<stop stop-color="#9486FF"/>
<stop offset="1" stop-color="#940070"/>
</linearGradient>
<linearGradient id="paint4_linear" x1="1229.97" y1="151.435" x2="1234.12" y2="257.356" gradientUnits="userSpaceOnUse">
<stop stop-color="#F2EAFF"/>
<stop offset="1" stop-color="#B4CDF6"/>
</linearGradient>
<linearGradient id="paint5_linear" x1="1284.12" y1="151.435" x2="1288.28" y2="257.356" gradientUnits="userSpaceOnUse">
<stop stop-color="#F2EAFF"/>
<stop offset="1" stop-color="#B4CDF6"/>
</linearGradient>
<linearGradient id="paint6_linear" x1="1338.26" y1="151.435" x2="1342.41" y2="257.356" gradientUnits="userSpaceOnUse">
<stop stop-color="#F2EAFF"/>
<stop offset="1" stop-color="#B4CDF6"/>
</linearGradient>
</defs>
</svg>
